<mxfile host="Electron" modified="2024-01-26T16:10:07.371Z" agent="Mozilla/5.0 (Macintosh; Intel Mac OS X 10_15_7) AppleWebKit/537.36 (KHTML, like Gecko) draw.io/22.1.21 Chrome/120.0.6099.109 Electron/28.1.0 Safari/537.36" etag="zKgu-OnbRfJ0F8z52Zsk" version="22.1.21" type="device">
  <diagram name="Page-1" id="3oikUc4-sOJH6D8OQeK0">
    <mxGraphModel dx="795" dy="562" grid="1" gridSize="10" guides="1" tooltips="1" connect="1" arrows="1" fold="1" page="1" pageScale="1" pageWidth="850" pageHeight="1100" math="0" shadow="0">
      <root>
        <mxCell id="0" />
        <mxCell id="1" parent="0" />
        <mxCell id="Pz64K4wgbgvodxNm2UrY-31" style="edgeStyle=orthogonalEdgeStyle;rounded=0;orthogonalLoop=1;jettySize=auto;html=1;entryX=0;entryY=0.5;entryDx=0;entryDy=0;" edge="1" parent="1" source="Pz64K4wgbgvodxNm2UrY-3" target="Pz64K4wgbgvodxNm2UrY-7">
          <mxGeometry relative="1" as="geometry" />
        </mxCell>
        <mxCell id="Pz64K4wgbgvodxNm2UrY-49" style="edgeStyle=orthogonalEdgeStyle;rounded=0;orthogonalLoop=1;jettySize=auto;html=1;entryX=0;entryY=0.5;entryDx=0;entryDy=0;" edge="1" parent="1" source="Pz64K4wgbgvodxNm2UrY-3" target="Pz64K4wgbgvodxNm2UrY-48">
          <mxGeometry relative="1" as="geometry">
            <Array as="points">
              <mxPoint x="166" y="160" />
            </Array>
          </mxGeometry>
        </mxCell>
        <mxCell id="Pz64K4wgbgvodxNm2UrY-3" value="&lt;font style=&quot;font-size: 14px;&quot;&gt;&lt;b&gt;Service 1&lt;/b&gt;&lt;/font&gt;" style="outlineConnect=0;dashed=0;verticalLabelPosition=bottom;verticalAlign=top;align=center;html=1;shape=mxgraph.aws3.resources;fillColor=#759C3E;gradientColor=none;" vertex="1" parent="1">
          <mxGeometry x="121" y="220" width="90" height="69.5" as="geometry" />
        </mxCell>
        <mxCell id="Pz64K4wgbgvodxNm2UrY-7" value="" style="strokeColor=#dddddd;shadow=1;strokeWidth=1;rounded=1;absoluteArcSize=1;arcSize=2;" vertex="1" parent="1">
          <mxGeometry x="311" y="224.75" width="100" height="60" as="geometry" />
        </mxCell>
        <mxCell id="Pz64K4wgbgvodxNm2UrY-8" value="Firebase" style="sketch=0;dashed=0;connectable=0;html=1;fillColor=#5184F3;strokeColor=none;shape=mxgraph.gcp2.firebase;part=1;labelPosition=right;verticalLabelPosition=middle;align=left;verticalAlign=middle;spacingLeft=5;fontColor=#999999;fontSize=12;" vertex="1" parent="Pz64K4wgbgvodxNm2UrY-7">
          <mxGeometry width="32.4" height="45" relative="1" as="geometry">
            <mxPoint x="5" y="7" as="offset" />
          </mxGeometry>
        </mxCell>
        <mxCell id="Pz64K4wgbgvodxNm2UrY-9" value="" style="strokeColor=#dddddd;shadow=1;strokeWidth=1;rounded=1;absoluteArcSize=1;arcSize=2;" vertex="1" parent="1">
          <mxGeometry x="511" y="224.75" width="130" height="60" as="geometry" />
        </mxCell>
        <mxCell id="Pz64K4wgbgvodxNm2UrY-10" value="&lt;font color=&quot;#000000&quot;&gt;GCP&lt;/font&gt;&lt;br&gt;BigQuery" style="editableCssRules=.*;html=1;fontColor=#999999;shape=image;verticalLabelPosition=middle;verticalAlign=middle;labelPosition=right;align=left;spacingLeft=20;part=1;points=[];imageAspect=0;image=data:image/svg+xml,PHN2ZyB4bWxucz0iaHR0cDovL3d3dy53My5vcmcvMjAwMC9zdmciIHhtbG5zOnY9Imh0dHBzOi8vdmVjdGEuaW8vbmFubyIgd2lkdGg9IjIwLjAwMTA0NTIyNzA1MDc4IiBoZWlnaHQ9IjIwLjAwMTA0NTIyNzA1MDc4IiBmaWxsLXJ1bGU9ImV2ZW5vZGQiIHZpZXdCb3g9IjAgMCAyMC4wMDEwNDUyMjcwNTA3OCAyMC4wMDEwNDUyMjcwNTA3OCI+JiN4YTsJPHN0eWxlIHR5cGU9InRleHQvY3NzIj4mI3hhOwkuc3Qwe2ZpbGw6I2FlY2JmYTt9JiN4YTsJLnN0MXtmaWxsOiM2NjlkZjY7fSYjeGE7CS5zdDJ7ZmlsbDojNDI4NWY0O30mI3hhOwk8L3N0eWxlPiYjeGE7CTxwYXRoIGNsYXNzPSJzdDAiIGQ9Ik00LjczIDguODN2Mi42M2E0LjkxIDQuOTEgMCAwIDAgMS43MSAxLjc0VjguODN6Ii8+JiN4YTsJPHBhdGggY2xhc3M9InN0MSIgZD0iTTcuODkgNi40MXY3LjUzQTcuNjIgNy42MiAwIDAgMCA5IDE0YTggOCAwIDAgMCAxIDBWNi40MXoiLz4mI3hhOwk8cGF0aCBjbGFzcz0ic3QwIiBkPSJNMTEuNjQgOS44NnYzLjI5YTUgNSAwIDAgMCAxLjctMS44MlY5Ljg2eiIvPiYjeGE7CTxwYXRoIGNsYXNzPSJzdDIiIGQ9Ik0xNS43NCAxNC4zMmwtMS40MiAxLjQyYS40Mi40MiAwIDAgMCAwIC42bDMuNTQgMy41NGEuNDIuNDIgMCAwIDAgLjU5IDBsMS40My0xLjQzYS40Mi40MiAwIDAgMCAwLS41OWwtMy41NC0zLjU0YS40Mi40MiAwIDAgMC0uNiAwIi8+JiN4YTsJPHBhdGggY2xhc3M9InN0MSIgZD0iTTkgMGE5IDkgMCAxIDAgMCAxOEE5IDkgMCAxIDAgOSAwbTAgMTUuNjlhNi42OCA2LjY4IDAgMCAxIC4wMDctMTMuMzYgNi42OCA2LjY4IDAgMCAxIDQuNzI3IDExLjQwM0E2LjY4IDYuNjggMCAwIDEgOSAxNS42OSIvPiYjeGE7PC9zdmc+;" vertex="1" parent="Pz64K4wgbgvodxNm2UrY-9">
          <mxGeometry width="30" height="30" relative="1" as="geometry">
            <mxPoint x="15" y="15" as="offset" />
          </mxGeometry>
        </mxCell>
        <mxCell id="Pz64K4wgbgvodxNm2UrY-28" style="edgeStyle=orthogonalEdgeStyle;rounded=0;orthogonalLoop=1;jettySize=auto;html=1;exitX=1;exitY=0.5;exitDx=0;exitDy=0;exitPerimeter=0;" edge="1" parent="1" source="Pz64K4wgbgvodxNm2UrY-11">
          <mxGeometry relative="1" as="geometry">
            <mxPoint x="320" y="404.5" as="targetPoint" />
          </mxGeometry>
        </mxCell>
        <mxCell id="Pz64K4wgbgvodxNm2UrY-11" value="&lt;font style=&quot;font-size: 14px;&quot;&gt;&lt;b&gt;Service 2&lt;/b&gt;&lt;/font&gt;" style="outlineConnect=0;dashed=0;verticalLabelPosition=bottom;verticalAlign=top;align=center;html=1;shape=mxgraph.aws3.resources;fillColor=#759C3E;gradientColor=none;" vertex="1" parent="1">
          <mxGeometry x="121" y="370" width="90" height="69.5" as="geometry" />
        </mxCell>
        <mxCell id="Pz64K4wgbgvodxNm2UrY-33" value="" style="edgeStyle=orthogonalEdgeStyle;rounded=0;orthogonalLoop=1;jettySize=auto;html=1;" edge="1" parent="1" source="Pz64K4wgbgvodxNm2UrY-12" target="Pz64K4wgbgvodxNm2UrY-16">
          <mxGeometry relative="1" as="geometry" />
        </mxCell>
        <mxCell id="Pz64K4wgbgvodxNm2UrY-12" value="&lt;font style=&quot;font-size: 14px;&quot;&gt;&lt;b&gt;Service 3&lt;/b&gt;&lt;/font&gt;" style="outlineConnect=0;dashed=0;verticalLabelPosition=bottom;verticalAlign=top;align=center;html=1;shape=mxgraph.aws3.resources;fillColor=#759C3E;gradientColor=none;" vertex="1" parent="1">
          <mxGeometry x="121" y="515.25" width="90" height="69.5" as="geometry" />
        </mxCell>
        <mxCell id="Pz64K4wgbgvodxNm2UrY-40" style="edgeStyle=orthogonalEdgeStyle;rounded=0;orthogonalLoop=1;jettySize=auto;html=1;" edge="1" parent="1" source="Pz64K4wgbgvodxNm2UrY-14">
          <mxGeometry relative="1" as="geometry">
            <mxPoint x="790" y="470" as="targetPoint" />
          </mxGeometry>
        </mxCell>
        <mxCell id="Pz64K4wgbgvodxNm2UrY-14" value="" style="strokeColor=#dddddd;shadow=1;strokeWidth=1;rounded=1;absoluteArcSize=1;arcSize=2;" vertex="1" parent="1">
          <mxGeometry x="511" y="520" width="130" height="60" as="geometry" />
        </mxCell>
        <mxCell id="Pz64K4wgbgvodxNm2UrY-15" value="&lt;font color=&quot;#000000&quot;&gt;GCP&lt;/font&gt;&lt;br&gt;BigQuery" style="editableCssRules=.*;html=1;fontColor=#999999;shape=image;verticalLabelPosition=middle;verticalAlign=middle;labelPosition=right;align=left;spacingLeft=20;part=1;points=[];imageAspect=0;image=data:image/svg+xml,PHN2ZyB4bWxucz0iaHR0cDovL3d3dy53My5vcmcvMjAwMC9zdmciIHhtbG5zOnY9Imh0dHBzOi8vdmVjdGEuaW8vbmFubyIgd2lkdGg9IjIwLjAwMTA0NTIyNzA1MDc4IiBoZWlnaHQ9IjIwLjAwMTA0NTIyNzA1MDc4IiBmaWxsLXJ1bGU9ImV2ZW5vZGQiIHZpZXdCb3g9IjAgMCAyMC4wMDEwNDUyMjcwNTA3OCAyMC4wMDEwNDUyMjcwNTA3OCI+JiN4YTsJPHN0eWxlIHR5cGU9InRleHQvY3NzIj4mI3hhOwkuc3Qwe2ZpbGw6I2FlY2JmYTt9JiN4YTsJLnN0MXtmaWxsOiM2NjlkZjY7fSYjeGE7CS5zdDJ7ZmlsbDojNDI4NWY0O30mI3hhOwk8L3N0eWxlPiYjeGE7CTxwYXRoIGNsYXNzPSJzdDAiIGQ9Ik00LjczIDguODN2Mi42M2E0LjkxIDQuOTEgMCAwIDAgMS43MSAxLjc0VjguODN6Ii8+JiN4YTsJPHBhdGggY2xhc3M9InN0MSIgZD0iTTcuODkgNi40MXY3LjUzQTcuNjIgNy42MiAwIDAgMCA5IDE0YTggOCAwIDAgMCAxIDBWNi40MXoiLz4mI3hhOwk8cGF0aCBjbGFzcz0ic3QwIiBkPSJNMTEuNjQgOS44NnYzLjI5YTUgNSAwIDAgMCAxLjctMS44MlY5Ljg2eiIvPiYjeGE7CTxwYXRoIGNsYXNzPSJzdDIiIGQ9Ik0xNS43NCAxNC4zMmwtMS40MiAxLjQyYS40Mi40MiAwIDAgMCAwIC42bDMuNTQgMy41NGEuNDIuNDIgMCAwIDAgLjU5IDBsMS40My0xLjQzYS40Mi40MiAwIDAgMCAwLS41OWwtMy41NC0zLjU0YS40Mi40MiAwIDAgMC0uNiAwIi8+JiN4YTsJPHBhdGggY2xhc3M9InN0MSIgZD0iTTkgMGE5IDkgMCAxIDAgMCAxOEE5IDkgMCAxIDAgOSAwbTAgMTUuNjlhNi42OCA2LjY4IDAgMCAxIC4wMDctMTMuMzYgNi42OCA2LjY4IDAgMCAxIDQuNzI3IDExLjQwM0E2LjY4IDYuNjggMCAwIDEgOSAxNS42OSIvPiYjeGE7PC9zdmc+;" vertex="1" parent="Pz64K4wgbgvodxNm2UrY-14">
          <mxGeometry width="30" height="30" relative="1" as="geometry">
            <mxPoint x="15" y="15" as="offset" />
          </mxGeometry>
        </mxCell>
        <mxCell id="Pz64K4wgbgvodxNm2UrY-16" value="" style="strokeColor=#dddddd;shadow=1;strokeWidth=1;rounded=1;absoluteArcSize=1;arcSize=2;" vertex="1" parent="1">
          <mxGeometry x="301" y="520" width="120" height="60" as="geometry" />
        </mxCell>
        <mxCell id="Pz64K4wgbgvodxNm2UrY-17" value="Google&#xa;Analytics" style="sketch=0;dashed=0;connectable=0;html=1;fillColor=#5184F3;strokeColor=none;shape=mxgraph.gcp2.google_analytics;part=1;labelPosition=right;verticalLabelPosition=middle;align=left;verticalAlign=middle;spacingLeft=5;fontColor=#999999;fontSize=12;" vertex="1" parent="Pz64K4wgbgvodxNm2UrY-16">
          <mxGeometry width="45" height="45" relative="1" as="geometry">
            <mxPoint x="5" y="7" as="offset" />
          </mxGeometry>
        </mxCell>
        <mxCell id="Pz64K4wgbgvodxNm2UrY-21" value="&lt;font style=&quot;font-size: 14px;&quot;&gt;&lt;b&gt;AWS Athena&lt;/b&gt;&lt;/font&gt;" style="sketch=0;points=[[0,0,0],[0.25,0,0],[0.5,0,0],[0.75,0,0],[1,0,0],[0,1,0],[0.25,1,0],[0.5,1,0],[0.75,1,0],[1,1,0],[0,0.25,0],[0,0.5,0],[0,0.75,0],[1,0.25,0],[1,0.5,0],[1,0.75,0]];outlineConnect=0;fontColor=#232F3E;fillColor=#8C4FFF;strokeColor=#ffffff;dashed=0;verticalLabelPosition=bottom;verticalAlign=top;align=center;html=1;fontSize=12;fontStyle=0;aspect=fixed;shape=mxgraph.aws4.resourceIcon;resIcon=mxgraph.aws4.athena;" vertex="1" parent="1">
          <mxGeometry x="542" y="370" width="68" height="68" as="geometry" />
        </mxCell>
        <mxCell id="Pz64K4wgbgvodxNm2UrY-27" value="" style="group" vertex="1" connectable="0" parent="1">
          <mxGeometry x="310" y="370" width="110" height="98" as="geometry" />
        </mxCell>
        <mxCell id="Pz64K4wgbgvodxNm2UrY-24" value="" style="sketch=0;outlineConnect=0;fontColor=#232F3E;gradientColor=none;strokeColor=#ffffff;fillColor=#232F3E;dashed=0;verticalLabelPosition=middle;verticalAlign=bottom;align=center;html=1;fontSize=10;fontStyle=1;spacing=3;shape=mxgraph.aws4.productIcon;prIcon=mxgraph.aws4.s3;" vertex="1" parent="Pz64K4wgbgvodxNm2UrY-27">
          <mxGeometry x="20" width="70" height="90" as="geometry" />
        </mxCell>
        <mxCell id="Pz64K4wgbgvodxNm2UrY-26" value="&lt;b&gt;&lt;font style=&quot;font-size: 14px;&quot;&gt;AWS S3&lt;/font&gt;&lt;/b&gt;" style="text;html=1;align=center;verticalAlign=middle;resizable=0;points=[];autosize=1;strokeColor=none;fillColor=none;" vertex="1" parent="Pz64K4wgbgvodxNm2UrY-27">
          <mxGeometry x="15" y="68" width="80" height="30" as="geometry" />
        </mxCell>
        <mxCell id="Pz64K4wgbgvodxNm2UrY-29" style="edgeStyle=orthogonalEdgeStyle;rounded=0;orthogonalLoop=1;jettySize=auto;html=1;" edge="1" parent="Pz64K4wgbgvodxNm2UrY-27">
          <mxGeometry relative="1" as="geometry">
            <mxPoint x="230" y="33" as="targetPoint" />
            <mxPoint x="90" y="33" as="sourcePoint" />
          </mxGeometry>
        </mxCell>
        <mxCell id="Pz64K4wgbgvodxNm2UrY-32" style="edgeStyle=orthogonalEdgeStyle;rounded=0;orthogonalLoop=1;jettySize=auto;html=1;entryX=0;entryY=0.5;entryDx=0;entryDy=0;" edge="1" parent="1">
          <mxGeometry relative="1" as="geometry">
            <mxPoint x="411" y="254.12" as="sourcePoint" />
            <mxPoint x="511" y="254.12" as="targetPoint" />
          </mxGeometry>
        </mxCell>
        <mxCell id="Pz64K4wgbgvodxNm2UrY-34" value="" style="edgeStyle=orthogonalEdgeStyle;rounded=0;orthogonalLoop=1;jettySize=auto;html=1;" edge="1" parent="1">
          <mxGeometry relative="1" as="geometry">
            <mxPoint x="421" y="550" as="sourcePoint" />
            <mxPoint x="511" y="550" as="targetPoint" />
          </mxGeometry>
        </mxCell>
        <mxCell id="Pz64K4wgbgvodxNm2UrY-41" style="edgeStyle=orthogonalEdgeStyle;rounded=0;orthogonalLoop=1;jettySize=auto;html=1;" edge="1" parent="1" source="Pz64K4wgbgvodxNm2UrY-35">
          <mxGeometry relative="1" as="geometry">
            <mxPoint x="960" y="404" as="targetPoint" />
          </mxGeometry>
        </mxCell>
        <mxCell id="Pz64K4wgbgvodxNm2UrY-35" value="&lt;b&gt;&lt;font style=&quot;font-size: 14px;&quot;&gt;Batch Job&lt;/font&gt;&lt;/b&gt;" style="sketch=0;points=[[0,0,0],[0.25,0,0],[0.5,0,0],[0.75,0,0],[1,0,0],[0,1,0],[0.25,1,0],[0.5,1,0],[0.75,1,0],[1,1,0],[0,0.25,0],[0,0.5,0],[0,0.75,0],[1,0.25,0],[1,0.5,0],[1,0.75,0]];outlineConnect=0;fontColor=#232F3E;fillColor=#ED7100;strokeColor=#ffffff;dashed=0;verticalLabelPosition=bottom;verticalAlign=top;align=center;html=1;fontSize=12;fontStyle=0;aspect=fixed;shape=mxgraph.aws4.resourceIcon;resIcon=mxgraph.aws4.batch;" vertex="1" parent="1">
          <mxGeometry x="750" y="365" width="78" height="78" as="geometry" />
        </mxCell>
        <mxCell id="Pz64K4wgbgvodxNm2UrY-37" value="&lt;b&gt;&lt;font style=&quot;font-size: 14px;&quot;&gt;Graph Visualize&lt;/font&gt;&lt;/b&gt;" style="sketch=0;pointerEvents=1;shadow=0;dashed=0;html=1;strokeColor=none;fillColor=#434445;aspect=fixed;labelPosition=center;verticalLabelPosition=bottom;verticalAlign=top;align=center;outlineConnect=0;shape=mxgraph.vvd.vrealize_log_insight;" vertex="1" parent="1">
          <mxGeometry x="1170" y="360.5" width="75" height="75" as="geometry" />
        </mxCell>
        <mxCell id="Pz64K4wgbgvodxNm2UrY-38" style="edgeStyle=orthogonalEdgeStyle;rounded=0;orthogonalLoop=1;jettySize=auto;html=1;entryX=0.5;entryY=0;entryDx=0;entryDy=0;entryPerimeter=0;" edge="1" parent="1" source="Pz64K4wgbgvodxNm2UrY-9" target="Pz64K4wgbgvodxNm2UrY-35">
          <mxGeometry relative="1" as="geometry" />
        </mxCell>
        <mxCell id="Pz64K4wgbgvodxNm2UrY-39" style="edgeStyle=orthogonalEdgeStyle;rounded=0;orthogonalLoop=1;jettySize=auto;html=1;entryX=0;entryY=0.5;entryDx=0;entryDy=0;entryPerimeter=0;" edge="1" parent="1" source="Pz64K4wgbgvodxNm2UrY-21" target="Pz64K4wgbgvodxNm2UrY-35">
          <mxGeometry relative="1" as="geometry" />
        </mxCell>
        <mxCell id="Pz64K4wgbgvodxNm2UrY-44" style="edgeStyle=orthogonalEdgeStyle;rounded=0;orthogonalLoop=1;jettySize=auto;html=1;" edge="1" parent="1" source="Pz64K4wgbgvodxNm2UrY-43" target="Pz64K4wgbgvodxNm2UrY-37">
          <mxGeometry relative="1" as="geometry" />
        </mxCell>
        <mxCell id="Pz64K4wgbgvodxNm2UrY-43" value="&lt;b&gt;&lt;font style=&quot;font-size: 14px;&quot;&gt;Admin /&amp;nbsp;Digital strategists&lt;/font&gt;&lt;/b&gt;" style="points=[[0.35,0,0],[0.98,0.51,0],[1,0.71,0],[0.67,1,0],[0,0.795,0],[0,0.65,0]];verticalLabelPosition=bottom;sketch=0;html=1;verticalAlign=top;aspect=fixed;align=center;pointerEvents=1;shape=mxgraph.cisco19.user;fillColor=#005073;strokeColor=none;" vertex="1" parent="1">
          <mxGeometry x="1390" y="358" width="80" height="80" as="geometry" />
        </mxCell>
        <mxCell id="Pz64K4wgbgvodxNm2UrY-45" value="&lt;font style=&quot;font-size: 14px;&quot;&gt;Amazon DynamoDB&lt;/font&gt;" style="sketch=0;outlineConnect=0;fontColor=#232F3E;gradientColor=none;strokeColor=#ffffff;fillColor=#232F3E;dashed=0;verticalLabelPosition=middle;verticalAlign=bottom;align=center;html=1;whiteSpace=wrap;fontSize=10;fontStyle=1;spacing=3;shape=mxgraph.aws4.productIcon;prIcon=mxgraph.aws4.dynamodb;" vertex="1" parent="1">
          <mxGeometry x="960" y="360" width="80" height="120" as="geometry" />
        </mxCell>
        <mxCell id="Pz64K4wgbgvodxNm2UrY-47" style="edgeStyle=orthogonalEdgeStyle;rounded=0;orthogonalLoop=1;jettySize=auto;html=1;" edge="1" parent="1">
          <mxGeometry relative="1" as="geometry">
            <mxPoint x="1172" y="403.38" as="targetPoint" />
            <mxPoint x="1040" y="403.38" as="sourcePoint" />
          </mxGeometry>
        </mxCell>
        <mxCell id="Pz64K4wgbgvodxNm2UrY-50" style="edgeStyle=orthogonalEdgeStyle;rounded=0;orthogonalLoop=1;jettySize=auto;html=1;entryX=0.5;entryY=0;entryDx=0;entryDy=0;" edge="1" parent="1" source="Pz64K4wgbgvodxNm2UrY-48" target="Pz64K4wgbgvodxNm2UrY-9">
          <mxGeometry relative="1" as="geometry" />
        </mxCell>
        <mxCell id="Pz64K4wgbgvodxNm2UrY-48" value="" style="shape=image;verticalLabelPosition=bottom;labelBackgroundColor=default;verticalAlign=top;aspect=fixed;imageAspect=0;image=data:image/png,iVBORw0KGgoAAAANSUhEUgAAAWAAAAGmCAYAAABC0F7lAAAMPmlDQ1BJQ0MgUHJvZmlsZQAASImVVwdYU8kWnluSkJDQAghICb0JIlICSAmhBZDebYQkQCgxBoKKHVlUcC2oWMCGrooodpodsbMo9r5YUFDWxYJdeZMCuu4r3zvfN/f+958z/zlz7twyAKif4IrFOagGALmifElMsD8jKTmFQeoGCEABDVCBC5eXJ2ZFRYUDaIPnv9u7G9Ab2lUHmdY/+/+rafIFeTwAkCiI0/h5vFyIDwKAV/HEknwAiDLefGq+WIZhA9oSmCDEC2U4Q4GrZDhNgffKfeJi2BC3AqBC5XIlGQCoXYY8o4CXATXU+iB2EvGFIgDUGRD75OZO5kOcCrEN9BFDLNNnpv2gk/E3zbQhTS43Ywgr5iI3lQBhnjiHO/3/LMf/ttwc6WAMK9iomZKQGNmcYd1uZU8Ok2EqxL2itIhIiLUg/iDky/0hRimZ0pB4hT9qyMtjw5oBXYid+NyAMIgNIQ4S5USEK/m0dGEQB2K4QtBpwnxOHMR6EC8U5AXGKn02SSbHKGOh9ekSNkvJn+NK5HFlsR5Is+NZSv3XmQKOUh9TK8yMS4SYArFFgTAhAmI1iB3zsmPDlD5jCjPZEYM+EmmMLH8LiGMEomB/hT5WkC4JilH6l+bmDc4X25Qp5EQo8f78zLgQRX2wVh5Xnj+cC3ZZIGLFD+oI8pLCB+fCFwQEKuaOdQtE8bFKnQ/ifP8YxVicIs6JUvrjZoKcYBlvBrFLXkGsciyekA8XpEIfTxfnR8Up8sQLs7ihUYp88GUgHLBBAGAAKWxpYDLIAsL23oZeeKXoCQJcIAEZQAAclMzgiER5jwgeY0Eh+BMiAcgbGucv7xWAAsh/HWIVRweQLu8tkI/IBk8hzgVhIAdeS+WjREPREsATyAj/EZ0LGw/mmwObrP/f84Psd4YFmXAlIx2MyFAf9CQGEgOIIcQgoi1ugPvgXng4PPrB5owzcY/BeXz3JzwldBAeEa4TOgm3JwmLJD9lORZ0Qv0gZS3SfqwFbgU1XXF/3BuqQ2VcFzcADrgLjMPCfWFkV8iylXnLqsL4SftvM/jhbij9yE5klDyM7Ee2+Xmkmp2a65CKrNY/1keRa9pQvdlDPT/HZ/9QfT48h/3siS3EDmBnsZPYeewI1gAY2HGsEWvDjsrw0Op6Il9dg9Fi5PlkQx3hP+IN3llZJfOcap16nL4o+vIF02TvaMCeLJ4uEWZk5jNY8IsgYHBEPMcRDGcnZxcAZN8XxevrTbT8u4Hotn3n5v8BgPfxgYGBw9+50OMA7HOHj3/Td86GCT8dqgCca+JJJQUKDpcdCPAtoQ6fNH1gDMyBDZyPM3ADXsAPBIJQEAniQDKYCLPPhOtcAqaCmWAeKAFlYBlYBdaBjWAL2AF2g/2gARwBJ8EZcBFcBtfBXbh6usAL0Afegc8IgpAQGkJH9BETxBKxR5wRJuKDBCLhSAySjKQiGYgIkSIzkflIGVKOrEM2IzXIPqQJOYmcRzqQ28hDpAd5jXxCMZSKaqNGqBU6EmWiLDQMjUMnoBnoFLQQLUaXoGvQanQXWo+eRC+i19FO9AXajwFMFdPFTDEHjImxsUgsBUvHJNhsrBSrwKqxOqwZ3uerWCfWi33EiTgdZ+AOcAWH4PE4D5+Cz8YX4+vwHXg93opfxR/iffg3Ao1gSLAneBI4hCRCBmEqoYRQQdhGOEQ4DZ+lLsI7IpGoS7QmusNnMZmYRZxBXExcT9xDPEHsID4m9pNIJH2SPcmbFEnikvJJJaS1pF2k46QrpC7SBxVVFRMVZ5UglRQVkUqRSoXKTpVjKldUnql8JmuQLcme5EgynzydvJS8ldxMvkTuIn+maFKsKd6UOEoWZR5lDaWOcppyj/JGVVXVTNVDNVpVqDpXdY3qXtVzqg9VP1K1qHZUNnU8VUpdQt1OPUG9TX1Do9GsaH60FFo+bQmthnaK9oD2QY2u5qjGUeOrzVGrVKtXu6L2Up2sbqnOUp+oXqheoX5A/ZJ6rwZZw0qDrcHVmK1RqdGkcVOjX5OuOUozUjNXc7HmTs3zmt1aJC0rrUAtvlax1hatU1qP6RjdnM6m8+jz6Vvpp+ld2kRta22OdpZ2mfZu7XbtPh0tHRedBJ1pOpU6R3U6dTFdK12Obo7uUt39ujd0Pw0zGsYaJhi2aFjdsCvD3usN1/PTE+iV6u3Ru673SZ+hH6ifrb9cv0H/vgFuYGcQbTDVYIPBaYPe4drDvYbzhpcO3z/8jiFqaGcYYzjDcIthm2G/kbFRsJHYaK3RKaNeY11jP+Ms45XGx4x7TOgmPiZCk5Umx02eM3QYLEYOYw2jldFnamgaYio13WzabvrZzNos3qzIbI/ZfXOKOdM83XyleYt5n4WJxViLmRa1FncsyZZMy0zL1ZZnLd9bWVslWi2warDqttaz5lgXWtda37Oh2fjaTLGptrlmS7Rl2mbbrre9bIfaudpl2lXaXbJH7d3shfbr7TtGEEZ4jBCNqB5x04HqwHIocKh1eOio6xjuWOTY4PhypMXIlJHLR54d+c3J1SnHaavT3VFao0JHFY1qHvXa2c6Z51zpfG00bXTQ6DmjG0e/crF3EbhscLnlSncd67rAtcX1q5u7m8Stzq3H3cI91b3K/SZTmxnFXMw850Hw8PeY43HE46Onm2e+537Pv7wcvLK9dnp1j7EeIxizdcxjbzNvrvdm704fhk+qzyafTl9TX65vte8jP3M/vt82v2csW1YWaxfrpb+Tv8T/kP97tid7FvtEABYQHFAa0B6oFRgfuC7wQZBZUEZQbVBfsGvwjOATIYSQsJDlITc5Rhwep4bTF+oeOiu0NYwaFhu2LuxRuF24JLx5LDo2dOyKsfciLCNEEQ2RIJITuSLyfpR11JSow9HE6KjoyuinMaNiZsacjaXHTordGfsuzj9uadzdeJt4aXxLgnrC+ISahPeJAYnliZ1JI5NmJV1MNkgWJjemkFISUral9I8LHLdqXNd41/El429MsJ4wbcL5iQYTcyYenaQ+iTvpQCohNTF1Z+oXbiS3mtufxkmrSuvjsXmreS/4fvyV/B6Bt6Bc8CzdO708vTvDO2NFRk+mb2ZFZq+QLVwnfJUVkrUx6312ZPb27IGcxJw9uSq5qblNIi1Rtqh1svHkaZM7xPbiEnHnFM8pq6b0ScIk2/KQvAl5jfna8Ee+TWoj/UX6sMCnoLLgw9SEqQemaU4TTWubbjd90fRnhUGFv83AZ/BmtMw0nTlv5sNZrFmbZyOz02a3zDGfUzyna27w3B3zKPOy5/1e5FRUXvR2fuL85mKj4rnFj38J/qW2RK1EUnJzgdeCjQvxhcKF7YtGL1q76Fspv/RCmVNZRdmXxbzFF34d9euaXweWpC9pX+q2dMMy4jLRshvLfZfvKNcsLyx/vGLsivqVjJWlK9+umrTqfIVLxcbVlNXS1Z1rwtc0rrVYu2ztl3WZ665X+lfuqTKsWlT1fj1//ZUNfhvqNhptLNv4aZNw063NwZvrq62qK7YQtxRsebo1YevZ35i/1Wwz2Fa27et20fbOHTE7Wmvca2p2Gu5cWovWSmt7do3fdXl3wO7GOoe6zXt095TtBXule5/vS913Y3/Y/pYDzAN1By0PVh2iHyqtR+qn1/c1ZDZ0NiY3djSFNrU0ezUfOux4ePsR0yOVR3WOLj1GOVZ8bOB44fH+E+ITvSczTj5umdRy91TSqWut0a3tp8NOnzsTdObUWdbZ4+e8zx0573m+6QLzQsNFt4v1ba5th353/f1Qu1t7/SX3S42XPS43d4zpOHbF98rJqwFXz1zjXLt4PeJ6x434G7dujr/ZeYt/q/t2zu1XdwrufL479x7hXul9jfsVDwwfVP9h+8eeTrfOow8DHrY9in109zHv8YsneU++dBU/pT2teGbyrKbbuftIT1DP5efjnne9EL/43Fvyp+afVS9tXh78y++vtr6kvq5XklcDrxe/0X+z/a3L25b+qP4H73LffX5f+kH/w46PzI9nPyV+evZ56hfSlzVfbb82fwv7dm8gd2BAzJVw5b8CGGxoejoAr7cDQEsGgA73Z5Rxiv2f3BDFnlWOwH/Cij2i3NwAqIP/79G98O/mJgB7t8LtF9RXHw9AFA2AOA+Ajh491Ab3avJ9pcyIcB+wifM1LTcN/BtT7Dl/yPvnM5CpuoCfz/8CbCh8VX+epGUAAACKZVhJZk1NACoAAAAIAAQBGgAFAAAAAQAAAD4BGwAFAAAAAQAAAEYBKAADAAAAAQACAACHaQAEAAAAAQAAAE4AAAAAAAAAkAAAAAEAAACQAAAAAQADkoYABwAAABIAAAB4oAIABAAAAAEAAAFgoAMABAAAAAEAAAGmAAAAAEFTQ0lJAAAAU2NyZWVuc2hvdFbsunkAAAAJcEhZcwAAFiUAABYlAUlSJPAAAAHWaVRYdFhNTDpjb20uYWRvYmUueG1wAAAAAAA8eDp4bXBtZXRhIHhtbG5zOng9ImFkb2JlOm5zOm1ldGEvIiB4OnhtcHRrPSJYTVAgQ29yZSA2LjAuMCI+CiAgIDxyZGY6UkRGIHhtbG5zOnJkZj0iaHR0cDovL3d3dy53My5vcmcvMTk5OS8wMi8yMi1yZGYtc3ludGF4LW5zIyI+CiAgICAgIDxyZGY6RGVzY3JpcHRpb24gcmRmOmFib3V0PSIiCiAgICAgICAgICAgIHhtbG5zOmV4aWY9Imh0dHA6Ly9ucy5hZG9iZS5jb20vZXhpZi8xLjAvIj4KICAgICAgICAgPGV4aWY6UGl4ZWxZRGltZW5zaW9uPjQyMjwvZXhpZjpQaXhlbFlEaW1lbnNpb24+CiAgICAgICAgIDxleGlmOlBpeGVsWERpbWVuc2lvbj4zNTI8L2V4aWY6UGl4ZWxYRGltZW5zaW9uPgogICAgICAgICA8ZXhpZjpVc2VyQ29tbWVudD5TY3JlZW5zaG90PC9leGlmOlVzZXJDb21tZW50PgogICAgICA8L3JkZjpEZXNjcmlwdGlvbj4KICAgPC9yZGY6UkRGPgo8L3g6eG1wbWV0YT4KteSg8QAAABxpRE9UAAAAAgAAAAAAAADTAAAAKAAAANMAAADTAAA9Qonpy4cAAD0OSURBVHgB7F0FeBVX057i7lDcXYpbKe4UKe4WgoQIJEACCSRIEkIIxEkgSCC4a4sWLVKKO7S4S5DikPaf2b98H+WLbHLP3T17M/M8PCR3d4+8u5l7ds7M+371NxqwMQKMACPACGiOwFfsgDXHnDtkBBgBRkBBgB0wPwiMACPACOiEADtgnYDnbhkBRoARYAfMzwAjwAgwAjohwA5YJ+C5W0aAEWAE2AHzM8AIMAKMgE4IsAPWCXjulhFgBBgBdsD8DDACjAAjoBMC7IB1Ap67ZQQYAUaAHTA/A4wAI8AI6IQAO2CdgOduGQFGgBFgB8zPACPACDACOiHADlgn4LlbRoARYATYAfMzwAgwAoyATgiwA9YJeO6WEWAEGAF2wPwMMAKMACOgEwLsgHUCnrtlBBgBRoAdMD8DjAAjwAjohAA7YJ2A524ZAUaAEWAHzM8AI8AIMAI6IcAOWCfguVtGgBFgBNgB8zPACDACjIBOCLAD1gl47pYRYAQYAXbAGj0Dz569gKvXb8KVK9fg9t378PhJNERHP4Mn0U/h0eMn8PrVG0iXLh1kzJgeMmXKCFmzZIaiRQtDvTrVoHrVbyBr1swajZS7YQQYAa0QYAdsRqRfv3kLBw/9Bhs3b4dTZy8COeF3797Bhw8f4WMM/vsYAzExMfj/R/jrr7/hq6++ghQpUkBK+pcyBaRJkwYdcgbIkT0rVChfGurXqwUtmzeCnDmymXHU3DQjwAhohQA7YDMgffXaTdi2cx/s/PkAXMNV7+PH0fDq9Rt0sn8lqTdyyhnSp4MsuArOn/draNywLrRv2wIqolNmYwQYAeMiwA5Y4L179vwFREathm079sCNm3eU8ML79x8E9gDK6jh79myQN29uqFq5AtjZDICSxYsoK2ehHXFjjAAjYHYE2AELgnj33kPofFfCb8fPwMOHjzHEECOo5diboXBFpkwZoFSJYtC3Vyfo2a09pE2bNvaT+VNGgBGQEgF2wCbelhcvXsK8hcth05adcOHS70qM9++/TWw0kZcXLVIQGtSrDUOse0OZUsUgVapUiWyBT2cEGAE9EGAHnETU/0Yve//BY/DyCYI9+w/DvfsPkxzjTeIQ/nUZZU5Uq1IRHIYPgG/r1oD0mFHBxggwAnIjwA44CfeHNtP+uHoTfPxCMd67FyjbgRyy3kabdVUrl4eh1n2gVfOGkDlzJr2HxP0zAoxAPAiwA44HnNgOkfO9dv0WTPIKwEyHvSB6ky22PhP7GaWsjXEcCk0b1VNyihN7PZ/PCDAC2iDADjgROMeg87116y5MnR4K6zZshQ+Yvyur1aj2DbiMslHCEZTCxsYIMALyIcAOWOU9oZXvnbsPYGZQBCxbuQE3296rvFKf0yhLgvKFnZ2GYViiIhZ1pNZnINwrI8AIxIkAO+A4ofnvAXK+9x88gpDwhbBoyRp49er1fw9K/FNqzIbo1rktODpYQwnMFWZjBBgBuRBgB5zA/aDNtQeY1zsvcjnMmbcUXvz5MoEr5DqcPVtWGDfGFrp0bAPZsaSZjRFgBORBgB1wPPeCnO8jLCNevHQthEVEIYHO03jOlvdQnZpVwWP8SKhVowpXzMl7m3hkyRABdsDx3HTicFi5ZosSerh3/0E8Z8p9iOK/Y0cPVyrmcuXMIfdgeXSMQDJCgB1wHDf76dPnsH7TdggMnY+8DrfjOMs4H9epVRUmjHOAurWrK6xrxhk5j5QRsFwE2AHHcm//xDjv9l37wc9/Nly8/EcsZxjvo3Tp0oIrxoL7IG8ExYXZGAFGQH8E2AF/cQ/eIl/v4SPHYTo634OHj31x1Ni/NmtcD1wwFEE5wmyMACOgPwLsgD+7B8Rgdv7CZQgJi4RVa3/87Ihl/EhE7p4Tx0BnzIigFDU2RoAR0BcBdsD/4E8ZDzexyo3SzWbPXQLvP4jl8dX3Nv+395H2g2DYoN7w9de5//sh/8QIMAK6IMAO+B/YSaNt2cqNEBAyT9Fq0+VuaNBpi2YNYMzIoVCjOochNICbu2AE4kWAHTDCQ5VtG5HP1y9gNpCckCVb8WKFYeJ4R2jXppklT5PnxggYAoFk74CJzWz/L7+Cf/Bc+AUFNC3d0qRODd6TnWFgv25clGHpN5vnJz0CydoBx8T8pWy6BYctsMhNt7ievrGjbcFmcB/IkoX5guPCiD9nBLRAINk6YOJPv3PnHoTOXgjzF6602E232B6iIVa9UMyzPxQqmD+2w/wZI8AIaIRAsnXAJBNPGQ9U6RYd/UwjuOXopkfXdjDCdhCULVNCjgHxKBiBZIpAsnTARC+5+addyO07F06dPp/sbj1twDkhRWUVlLVnYwQYAf0QSJYO+OKlP8B3Zhis27hNP+R17JlS0UaPHAI1q1fWcRTcNSPACCQ7B0wpZ74zwyFiwTJ4g2KaydFIsHMUOmAuSU6Od5/nLBMCyc4BL0Ju3yCM+/5x9YZM90HTsbRp1RhGOQyGalUradovd8YIMAL/RiBZOeAjR08qoYc9+w4DxYGTq5E6hiOWJJcvVzq5QsDzZgSkQCDZOODop89gsncgrFi9Cd6+fScF+HoNwgqLMOyHD4SiRQrqNQTulxFgBBCBZOGAabUbPGuBEvclZePkbmNQKdlmcF/kBc6S3KHg+TMCuiKQLBzw9l37YEbAHDh24gxQ9VtytrRp04D3JBcY0LcLlyIn5weB5y4FAhbvgEnR2M3DF7Zs/TnZhx7oiStVshh4uI2E71s1keIB5EEwAskZAYt3wLPmREF4xGK4dftucr7P/5l7WyzCGDViMFT5pvx/PuMfGAFGQB8ELNoBU8GFK65+Dxz8FT58+KgPwpL1SpJEgwf2BFLHYGMEGAF9EbBYBxyD8kKePkGweNl6ILJ1NkDynXww2X00cgE3hZQpUzIkjAAjoDMCFuuAidvXffIMOHXmfLLfePv0jHXq0Ao5IAZDhfKc//sJE/6fEdATAYt0wK+R6WzsBB/YsGk7vECJeTaA9OnTweQJTtCjW3vIlDEjQ8IIMAISIGCRDpgcr+e0YKXcmMQ22QDq1q4O7q4OULtmVfjqq68YEkaAEZAAAYtzwJR25ug8GfbsPQRv3iZPsp0vn6vMmTKC8ygb6Imr35w5sn95mH9nBBgBnRCwOAdMKWdEsn7/wSOdIJWrW1rtduvcFgnYraBM6RJYfMGrX7nuEI8mOSNgUQ74yu/XwM7JHU6cPMtpZ/881cR45uZsB/Xq1gCqgmNjBBgBeRCwKAc8dXoozEWe3+inz+VBWMeR5MqZA8Zi3i9lP2TPnlXHkXDXjAAjEBsCFuOAr12/CQOHjIFzFy7Bx48xsc01WX1Gq91+vTuD3bD+ULhQgWQ1d54sI2AUBCzGAU+fORtmzVkEz56/MAr2ZhtnihQpoE3LxuCCG29ly5aEVFx0YTasuWFGwBQELMIB37lzH3r2t4PzF3/Hogte/dasURk8XEcqkkMc9zXlz4OvZQTMi4BFOOCQsEiYHjAbXrzgoosihQvCRGQ7a960PmTMmMG8Tw+3zggwAiYhYHgHTHm/3XrbwPkLV+BjMl/95syZHWO+A2BAny6QjcnWTfrD4IsZAS0QMLwDpqyHiV4BQGrHydkyZcoAfXp0Uqgmc+XKoQsUVPjy/t0HRW8vVepUkCZ1akiTJjVX3ulyN7hTIyBgaAdMOm+dug+Bs+cvJ+vYb7p0aaE98vxO8hgNX+fOqYnD+/jxIzx6HA1PMeWP7sObN28V1rnnGAaiYxnSp4dMWIGXJUsmyJEtK9DqnL4YiIciZcoURvjb4DEyAmZHwNAOeOny9TBqnGeyVrpIlSoVNG30Lfj5jIf8+b42q8wQ8WrQKvcu6upR2t/hX0/A2XOXMPXvMty7/xBXvv/Lu5EqVUooUbwoVKtSAagopGzpklCwQF7Ig18URBDEvBRm/xvnDiRGwLAO+OXL19ChmzWcOnUOYpKpxDw5r1qY8TAr0EtROKb0M3MZEdrfvnNP0dXb8tMu2Pnzfnj56k2iu6Oc5Pr1akKjBnWhYvkyUACdMXFVsDECyREBQzpgUjnetecg9Opvr7zuJssbh863WNFCsGD2DKhYobTZVr5/4aqX4uvnMMwTGbUKVqzeJARuig3XqlEFevfoqDhkqtrjlDkh0HIjBkLAkA743bv3MNR+HGzaslPZ8DEQ3kKGmgKdb/78X0OI/xRo8F1ts73G0xdddPQz2LZzH/gHz1XoPYVM4LNGsmXNAi2bN8CqvS6KTl2GDOk/O8o/MgKWjYDhHDDFIelVuFb99sky9kthB1otjh9rr5Qam+vxJOf7+MlTWLdxK3hPCzE7sX3N6pXBYfgAaNr4OyU2bK55cbuMgEwIGM4B0+o3Yv5SmIByQ8nNyPlmzpwJrPp3UyrdzDV/cr6PHkXDqnVbYKpvKLx+k/hYb1LGRkrNDkib2bpFI6DMDjZGwNIRMJwDfv78T2jXxQrOnL1o6ffmf+aXLm1aDDnUgqj5gUp+7f+cIOADymR48PARLF2xAfz8Z8Pbd+8EtKq+iW8qlgVHB2to27opUIYHGyNgyQgYygETy9lJzHpo3ra3Jd+TWOdGKsZlkVB92aJgVDfOH+s5pn5I4R1KJ1u4eDUEhsyDd+8/mNpkkq6nzTl31xEoo1TNbJuLSRoYX8QICEbAUA6YBDYnTPSDRUvXCIZB/uZIUj4UN93q46abuezO3fsKn3JI+EJdKT0pnY5S1Xw8xylfOuaaL7fLCOiNgGEcMK3OiPXs28Yd4c+Xr/TGTdP+c2EV2dBBvWHUyCFmy3ggTo05GFsPnrVACjURyobo2K4lBM6YiJVzKTXFmztjBLRCwDAO+BVKza/EHNRRYz2BnHFyMXJELZs1gNCAKZgdYJ4ULSolnr9wpRJ2eCkRpwbFgydNcFKKNpLL/eZ5Ji8EDOOAH+IKbZCNMxw4eDTZ3CF6Fa9WpSLMCfVRii7MMXF6m/gU832COb8yfbkRnWaHts2VfGfKAGFjBCwNAUM4YCJ3OX7yHLTrPBDe67QxpMeNL16sMLg620LH9q3Mshn1Ggl0lixbB8SnfAtzq2VyvoQ3OV1aBftNdYMamCfMxghYGgKGcMAkMzRn3lIg0c3kYjmyZ4NuXdrChHEOCrOY6HnTF9nSFeuBNtyuXb8lbUVhvrx5YAjGv0faWYmGgNtjBHRHwBAOmCrfBg93Udi3dEdMgwGkRh5dKjGegQxnRQqbR1BzzfqfICh0gcJkJrOMU9o0abA6rh4siQzSAHnughHQFgHpHTCpXFDub/sugxTOWW3h0ae3ShXKKqXGTZt8BynNwHB2+Mhx8Mc83z37Dkkf0qEwRMXypSE82BvKlyutzw3hXhkBMyEgvQOm8EPU0rXgnkxKj/Mhpy9JCtkO7WcWTTfK9Z0ZFAGr1mwxTDofvQWMH+sAXTq2MdOfATfLCOiDgPQO+OatO+Dk4gm7dh/QByENe6XS2+ZNvwPPiWOgeNHCwnumsuLwiMVYbLEcyBEbxXKjkobVgB4wdpSNUYbM42QEVCEgtQOOifkLTpw6C117DYdnz5+rmpCRTypTqjjYDx8IPbq2M0vxwfpN2yEwdD7yaFxACae/DAMVpaN937oJzA6eapgx80AZATUISO2An7/4E1+VN4Oz21TpUqTUgJuYc6jgovMPrcHNxR6+zpMrMZeqOvf0mQswHcl1du35xXCx9DS4EdeoQW1YETVL1Vz5JEbAKAhI7YBv3LwD7lNmwMbNO4yCZ5LHSQQ0zk5DoUmjesLLjanAYvrMMFi1dgsKaBrvTYLUMxrWrw0rF4clGV++kBGQEQFpHTAVBZzA4oveAx3g/oNHMmInbEy5UaByYN+uYDesv8L3K6zhfxqiSrcg5Hi4eu2m6KY1aY+kihqjhtyyRSGa9MedMAJaISCtA6YS2Q0Ysxwx2iNWtV2tANKin+ZN68O4MbZQtXIF4d0dO3EGPKcGwcEjx6RPOYtr8pkwBtzu+2aK+Ghc5/DnjIAREZDWAd+6fVfRIVuwaJURcVU95gL584LNkL5gjbv8okUpnz57AV4+QbB2w1Z4+sx4oYdPIObOlROsB/bAEM2wTx/x/4yARSAgrQM+d+EyOI6ZBEePnbYIoGObBBVZtEeymTGOw6Bc2ZKxnWLSZ4qqRcAcLDU2Zujh0+SLFikIHm6O8EO7Fp8+4v8ZAYtAQEoHTJpkh7Baq6/VSEOv3BJ6QqjAwAHTzvr26gypU4uV3zmLMvLjPXzh8NETQDp6RjWqhKtcqRzMDfOFEsWLGHUaPG5GIFYEpHTAxP1LkvM2Dq6xDtoSPiSScUo7c3IYDGVKFxc6JYqfe2LogardjBx6IFAyZsgAbVo1Rj5kT+FfUkJB58YYgSQgIKUDJl0yYj8LQL4CS7ViRQuBo7019OjWHlILFp/c9OMuLN32A0rjk41iMrH3s0jhgjB65GDo07NTYi/l8xkB6RGQ0gFfvPQHTPYOgJ+275EewKQMkEqOe6LjdbAdCCWLF01KE3FeQzm/tiPGw94Dh+HtW20VjeMcVBIPUFimXt0a4O/rDkWLFEpiK3wZIyAvAlI64CMYtxzuMB6uGnzzKK7bTptKLshr0LVTWyw5ThHXaUn6fMny9TBlaiBKyz9O0vUyXZQfiYmGDuqFX1RWMg2Lx8IICENAOgf84cNH2LpjD1gPc4b3H/SRRReGbiwN0aYSEa2PtBskXPGXClasho6G346fQWFNY2NH5ceNG9QB78kuQMogbIyAJSIgnQN+Ev0UFqNMzkRPf0vEG3LmyI58D3bQu2dHSIPE66KMYr1hc6LAL3AOPDVgufHnONCXVEnMeLCzGQD9enf+/BD/zAhYFALSOeA/rt5Avtq5ilyORSH9z2Rat2iM8vKDoXrVSkKnR/SS3fvYwsXLfyDTWYzQtrVujOSYundpB2NHD4csWTJp3T33xwhohoB0Dvi346fB1d0XCzBOaQaCVh0R45mrsx30x1VdpkwZhXVLedPEdEb6bi8xBc3Ili5dWkWCaOyo4VCxQhkjT4XHzggkiIBUDpheo4kucZi9Kzx58jTBwRvthDq1qikOuH69mkKHfvv2PfgeFaNvY/n2X3/9LbRtLRuj7JAq35RHTuQB0P775lp2zX0xArogIJUDpo2jdRu3wVC7cbqAYc5OqfDCycFa4TTIk1ss36+P3yyF7ewNyswb1VJgWTZlhwxFBWSr/t0hVaqURp0Kj5sRUI2AVA74Ma56Fy1ZjWlUlqeAS/Lqvt6u0LZ1U9U3R82JL/58CQ2adQEiLzLq6pc23Uh2qF/vLgolZ9asmdVMnc9hBAyPgFQOmPhqQ8IiYUGU5TGgkaCkI66Ay5ctJeyhoZBN+NzFMMkrwNB8D1mzZIY+vTohL4YV5MmdQxg+3BAjIDsCUjngk6fPg9e0ENj5837ZcUvU+FJh+MHHc5xSdpwRN+JE2WvkzGjYohtcvXbDsKvftGnTKhp4jvaDgMqO2RiB5ISAVA5434Ej4DLeBy5e+t2i7gGten08x0L9erWEzevjxxiUGNoM9k4ehk07ozhvx/atkBNjENJxinszEAYyN8QImBkBqRzwxi07wMbeDV6/eWPmaWvb/GCrnmA7tJ/QFR4xxjVp2QOu/HHNkIQ7FPdtVL8OOI0YAt99W0PbG8K9MQKSICCNAybO2hWrN6EE0URJoBE3jIhZ06ADkomLYj37+PGjkq7Xo6+duEFq3BLl+JIMU5uWjTXumbtjBORBQBoHHI0sXpEoHklEMpZklPvrNXEMVKtaUdi0Xr16DbaOExTNPGGNathQ4UIFYPxYe4UPmdLP2BiB5IqANA6Y0qjCIxbDLOQzsCSzs+kPw6z7AGm/iTCqeiOe328bd0K6SePl/VJpsQtWufVBLowsmbnMWMQzwW0YFwFpHDBxAAeEzMUwxGbjovnFyKn4Yn74dGiNr9miJIco82Fe5ApwnzLji97k/5VWuyTBZD2wJ+TPlwcoDszGCCRnBKRxwMeQQnGqXyjs2v2LxdyPShXLwsxpE6BGtW+EzYmKVTp2Gwxnz18S1qZWDXXr/D3Y2wyE8uVKAYcetEKd+5EZAWkc8N79R8DDcyacwlxgS7FBKDXvgLwGFPMUYe/ff4ADh45Cj762yPf7UUSTmrVRp1ZVhd3s2zrV8W0gtWb9ckeWgQBpG+5DH7Hvl1/hzp17itZhNNKu0hd5juxZIe/XuaEw5pFXLF8a6taurrxhGeFLXhoH/OO23eDi5g2379y3jCcGZxEROg2+b90E0qdPJ2RO9MBRmXZk1Eoh7WnVSPZsWcETNyLbt20OmTJm0Kpb7scCEKD9jqUr1sP2nfvg0eNooNL79+/fK7nvlAtPRiROFOJLmzYNZMC/tUyZMkHzZg2gL+oIlihWSDkuKxTSOOA163+CkWMmGZ5O8dONJgn18GBvhfdXRKyTyo5/R67klu36GI5w3WZwHxiG/woVzM9x308PCP8fLwKU6bPvwK8wf9EKOHHqnPLM0wa0WsuOq2IidxppO0ihN80o6Re/NA542coNYOfojiW16kFWezP0OK9jh1Yw3sVemJwObb7RW8Lg4S56TCfJfRLx/KQJTlCrRhVhG5FJHgxfaAgEHqC01poNWyFq6Rq4fuN2ksVlUxLDHqqP9+reAfr26qwQPskGgBQOmIowopauhTGuXrLhk+TxeLiNVF6BcubMnuQ2Pr/w0aMn4OkbDIsWr/n8Y6l/plWH16Qx8EO7lkCEO2yMQEIIXL9xC0hYloqyKBxJb36mGom70jNoM6QPFCyQz9TmhF4vhQN+8eJPfNVYqbB6CZ2dTo0Rx8GyhcHQEEttRW04Xbt+C7r0GgbEGGcUo5XHKCw1LoarEBFhGKPMm8eZNASoFoD0IGkxdu/+w6Q1EsdVuXLmUMiwhiAtAIXCZDEpHPBDXN1FLFgGfiirYwlWvFgRiIzwg0oVygqZztt372Dv/sPQ12qkYbIfCuND7j/dA+rVraFsjggBghuxWASoEnYJbrbNmbcUV773zDLPr/PkQr7pAag32BZy585plj4S26gUDvgWSuqERUQpqr6JnYCM53do2wLjno7CyHdo93fW7EVYqDJPxunGOiaqdrMe0B1yIdE6GyOQEALrN20Dv4A5cO785YRONel4ubIlFWoAYiak7Am9TQoH/Psf1yEYidgXLTFOfDO+G+fuOgKFN7tAjhzZ4jtN9TFSih5iOxaOnzyr+ho9TyTeC39fD6iABRdUDcjGCMSHwNXrN2FmYASsXLPZ7G949DzSwmDY4L5KlkR849LimBQO+PzFKxAQPA/5bbdoMWez97Fm2Wz4DoU30wgoOKCCi0NHjkOv/nZAFJSyWzokWJ/mNU7h+c2cWZzys+zz5vElDQHKeqJNt8DQ+UALDS2sSOECMNl9NLRq3hDSpNG3KEgKB3zm7EWYERRhWHavzx+aPBhbWr9qLpQrU/Lzj5P887NnL2DZqo3g6j4tyW1oeWHTxvXAz2c8FMHqP9540xJ5Y/b14OFjIFHZJcvXmX31+wkhei4H9O2q6A8WL1b408e6/C+FA6ZE6xkY/9my9WddQBDZ6Xff1oTgmZOFvd7cvHUXvH1DlLQckeM0R1tUhRQa6AUtsQpJVPWfOcbJbcqDwMHDx8B3ZriyyazlqCgzZ4oHroJbNALKF9bLpHDARMTj6x+ulBvqBYSofq36dQNnp2HwNdamizDalBhkMwYuXb4qojmztkGON8BvItBuM69+zQq1xTROaWcUfqB9IC2NeCLo73QQbRRjippeJoUD/vW3kzBtRhj8vOegXjgI69dnylgl31BE4QHFf/cj+UivAfbSqx5nzpQR5szygcYNvuW0M2FPk+U3RH/3YcgB/hxrAbS2Zk2+U5xwzeqVte76P/1J4YBpk8lneqjCdPSfkRn0h7XLZ2PuK27ACQjuEwPUilWbYJwB4r9tWjaCkABPIOIdNstA4O3bd0pBBMVpSaeRKlaJwTlr1ixKcQ0xkJlq7pNnwGzM/SWCHa2N9ms83Byha6fvdSuTl8IBHzh4FLzRAR/CeJCRjVa92zcvhlIliwl5Bb+BdfDTsTiFEtRlNsr2WDhvJjRpWE/IF4/Mc00OY3v2/AVc+f0anL9wBU6fuQBXsQqTqlUpC4c49PNgiKl6lYpQuVJ5KFOmBJQtXSLJsIyfNF0pvtCLXnU4iuWSYC6VK+thUjhges32wo2mI7+e0AMDYX1Wq1IBK+BmCit1PI3ZISNGTYSTp88JG6M5GvqmUjlYvyICsmXLIuSLxxxj5DYTRoAYyCgn95dDvyn7MSdOngNyxrEZxVBzYp47vcZ36dgGvq1TA9KlSxvbqfF+NtHTH1fAS5JMuBNv4yoOUqXm2NHDUZm7poqzxZ8ihQOmFTA54MMYijCydf6hNZLPOCubUKbOg0hIaIe4z8ARcf4RmNqHqOt9PMfBQEzrERF2ETUmbidxCPz58pXyBrp42VrYe+AIrnhfqmqAHHFxzChwHmWjZL9kRp2/xGzAUgFWKFZ5EgOaHkYbcBPGOSiMaXpUxknhgOkbdyqGIOh/I5uD7UAYYWuFDP2mV8BRvG3r9j0wYMgoaSGhP7ScObLD3h0rIV9e1niT9kYlMDAKLexDpxuGjnA/LoYSa/QcUOyfaEdpNZyYlfCGzTvAP2gunDqjnxKO7dD+KJU1ADOXciV26iafL4UDpk04csAUijCy+Xq5Qo+u7UFEBdgT1H6LwhSdSV7+0kKSMmUK6N3jByy8mACpJairlxYoiQdGqhKHjhxTnODufYdMGiltas0N80VJoGqqeRZIgmwqFmJs27HXpL5Nubhxw7owZuRQqItyWVqbFA6YYr8+mI6yx8QHQGvwvuxvSWQQbkR9m6gVwJdtfPr9BkqxEPlOZNSqTx9J9z8VW1DWB5GtG0F/SzoAJRgQlf8SCc6adT/Ch4+m6wyS9t8clOIqkP9rVc8EZfp4+gTDwsWrFZkhPSChtzc3FzsMQ/yQqPCJiLFK4YD/Pw84HPOAfxExJ13aoNew3VuXQ8UKZYQQ0FABxoTJfrB7r2mrEnOBQQ63DO5+H9i1WtUfmrnGwe0mHQFK/QoNX4RMhItRb+1J0hv64kpf5ALp3aMjZMiQ/osjsf9KcWAqxqC3Pr3M2XEYjLC3Qk05dWMWNU4pHPBvx08r5Yg7du0XNS/N28mYMT0c2rNeWAbEkaMnYPiI8SArATsJIBLlpKP9IM2x5g7FIHDh0u/gNS0YtvwklgKgdKlisHxRiELHqubN6CeU2pqBbGjHTpwRM7EktEKrXycHayAtRy1NCgd8AmkWp+NrEN0Io1o5zIdcs3yOshklYg679x6EPlYj4PXrtyKaE9oGrfZJCvxnXPEXRtIdNmMisBxJngJD5sPFy38InwCtgnt264AKxQkz4lHOMVXEkTCvXtbgu9oweuQQIJ5gLU0KB3zm3EVlE2Ddxm1azl1oXw1Qfigi1AdoI8JU+4ixuJ+27YF+1o6mNmWW60lmqVGDOrBy8SyztM+NaoMArX7nYA7uiz9fCe+wVs0qMA835Arkz5tgXJWKMMgBB4bOg09S88IHlECDxIpG3BDdu7RL4Eyxh6VwwJeuXIUgjAEtXbFB7Ow0bK0Div75TXVDYg/TRTgpB5PIqWUVKaVVzRT3UQqln4YQc1eCERg3wQfmRa4QsvkW29DW4hshFTqoyQ8nLnDaDLyMvkAPozG6YC6zo711gl8YIscnhQO+hkqooeELlYdB5OS0bIv4Rd3HjYDs+Gpuqj14+AgWoEjptBnhpjZllutJZmj3thVQEFc3bMZEICYmBkaP8zJrlg2pEDvZD1YlS0WUtOSAf9SRknbIoF7KKphy27UyKRzw3bv3IXzuEkWWSKuJi+6HNqNG2A0SIr9O0ty0Mzx/4UrRwzS5Pcr3rVatImzdEGVyW9yAfghQpaXbxOm46FmORDgfzDIQKlGPnDNDIe5JqAOqxCNOcMqG0Ms6tm8JYxyHQrmypTQbghQO+DGKTpIqMhEzG9U+vZKr2XRIaI4XLv6uqARs3LIjoVM1P06lprZD+yoZEJp3zh0KRYAWPfTmaS4VYtqs/XHDIqhZrZKq1EziBiZ1jDu4INPDaAOONuJoQ04rk8IBU8yTXrknSlz1ldANCfGfDB07tBKSR0ivYx5TZkpZGUibjFHzA7H4onJCkPBxyRHYitVntOqkNFBzGWVDdMONLTX82ERF4BcwGwuyDptrOPG2WxZlxEaNGKyUU8d7osCDUjjgd+/eoSLyWnB28xY4NW2bWoxOqVmTekhGnnhGqC9H+utvp2DseB84cUouFWRa0ZCUC+U7q9lY+XJe/LtcCFxDutMp3oGwbuNWsw2sT89OMG7McFV0j7du31OqP+cvXGG28cTXcE7cQHdyGAzDh/SN7zShx6RwwBSPWrZyI9g7uQOppBrRVqMScn2ktBPhmGgl4OQ8GS5jfqRMlj5dOmiBskORETNkGhaPJYkI0EYcpaJRJRyRr5vDKA4cgaXJVJyRkNF4ZmNYZDJ+KbzTgaCdikZoL2f8WIeEhirsuBQOmGazYfN2GOUyBZ5EPxM2OS0b2rB6HlAdPJGTm2r0CmbnOEG3WFhc46cMjxHDrXCz0SquU/hzgyGwHBVXiHPkkhmKMQgK+nvYhiIFVb4prwoZ2vfwmhaiWzqazeA+MB7pKbUqSZbGAVMZsquHr+bifKqeChUn/bh+EdTAzYbUqVOpODv+U3b8fACGDHeRjgc4X748MCvASynCiH8GfNQoCFAV6jTc/DYnGxkxpLVG9WE13BBUjjwjkKpi9+gCYd9encDV2Q5EyC2pmYA0DphI2Sd5B8Bvx8y3IaAGkKSes2PLEuVbXgSpM+VC9rN20o0dKi4MqFpo549LWfctLoAM+PmLP18qbGQR85eabfSU2mU9sKeqKlHSnwsJWwgh4ZFmG098DXds3wrGYsy6NMqKaWHSOODjJ84qKSg7fjYmIc+e7SugYnnTmdAoBr5xy04YKBkRe9o0aaDetzVg1ZJwZD/7Sotnk/vQAIG/cP8lHFWJ/YPnweMn0WbpsV2bZjBxvCPQF3hCRqXIC6JWKllAb968Teh04cebN62vFGPUqPaN8LZja1AaB0zMTP7Bc2HVmi2xjVP6zw78vAbFCUtivmMKk8ZKDyDFw61tnE1qR/TFWVBwtCeSzft4jhXdNLenMwLEhkav/ZT+aA4riQxj88KnA23IqTFSyZjkFQDXUJ9OayNtOFqxa5ULLI0DvnnrDoThNzElhxvRjuzfCPSgqaHfi29+RIq9HkmJhtjK5ei+RiVcejAHDegR3/D5mAERIO5pX/9w2IiOzxxG1KWrl4ajcGd1VX8flAXkOzMMZZK0V8ghcYFRWIzRAlfCWpg0Djgasx8ikRV/ytRALeYtvI9De9crcSOTHTAyQxEr3FA7uRww0U4Gz5yk2cpA+A3iBuNEgCTniXdk1pxFcZ5j6gFaAdNGHKmoJGSUkUElyZSaqrVVrVwBnLAYo23rppp0LY0Dpnp0YgBzGOUBlBdsNNuzfSXGgEurKrmMb26EAyXGD7N3je80zY+VKV0cNqyci8KFuTXvmzs0LwK070Bvn9P9Z8NzdMbmMK+JY6BHt/aqBGvvo0JyOOYm68ELUQH3cYiYvRNWtWph0jhgmizt/tthMcbTp8+1mLvQPrZujILqVSuqFiOMq3NywGs3bAUbB3kccKqUKaEmlh5vWjPf5C+YuObNn+uLAJGhT8cwxKXL5qGDdBg+EIZa91ZVEfcaVZrnYTWc+2TtC35KlyoOI7EYg/Y7tDCpHDCpIo+dMA3OX7isxdyF9rFh1Vyog2qwphZiUAXQWvxjIDkiWSwDvja2bN4Q5s/2k2VIPA7BCFDclTbizKVB2L1zW3BGvl01mRC0Il+yfL3Ch/3u3XvBM42/uRLFi6IDtoI+qGmnhUnlgE/iLqyXbwjsxEIEo9mKqFBoiCoRlK5lir3/QCGIbTDMbpwpzQi9NmvWLNCDMiCmuAhtlxuTBwFSR54ZFGE2UQRSC/fEMES5siVVTZpW5C7IDaN1ZWzJEuiAkVa2d48fVI3T1JOkcsD0EFDcJ2rpWlPnpfn1C+fOxJ3TBiZL0suYB5wbGdCoRJPUAtgsE4Fnz18osmBBsxaYZYIUwvKbOh6+qVhWVfubf9oFblgZe/PWXVXnizqpFBZgkAPu1b2DqCbjbUcqB/zw0ROFlpI4QY1ms0OmAiWcq9nlTWhuslXCka4XlWdq9VAmhA8fF48A6RCGIDewN76BkkabaKtcqTwE+Hmo5oQgagJ3pGS9iPUBWpoSA0YH3BM3DLUwqRwwMTLRBpTDKHcswzUWKxrpwdFresaMGUy+b1SXbzVsDCoivzG5LRENEAXldG83aNq4nojmuA1JEYiMWqWUJT+Jfip8hOWQazckYApUq1JRVdv7DhyByVOD4JgZuYpjG0iZ0iUURjStxDmlcsAEyK7dvygpWOYqi4wNdBGfjR09HGyQRzQLKkaYahQDH4ox4OincjDDEZXg7OCpUAVzJNksFwFKf5w6fRaQTLxoK1GsCIQHe0ON6upKfA//egJX46EoSnBE9FDibS9Zp6ERMr8dPwOu7tPg6LFT8QIl20EiG3F1thVCVLNn3yGwHTke7t57KMU0aeNk0bwApdJPigHxIMyCAH3xT8MKNHMQYhUqkA+IFY3k6tUYiRJQKHL33oNqThd2TjVMJR2FpOxtWjUR1mZ8DUm3Ar7yx3WYGRgBy1dpXwUTH1AJHfsBWZT8vF2BWPVNNWKGcxwzCX7HTUkZrFKFMrAKS0mpHJnNchGg546KMej1X7QVKviPA8ZSXzV25OhJxQHTYkRLq4uppKQL16SRNuE26RzwI9yIo5Jk2gwwkhGJx7xwX6TcM91J0bf/OHwLOI7cqDIYkWlvWRepis9VhvHyGJKGwFF87vwwF3j7zn1JayCeq4jecVaQFxYrVYrnrP8eohCEj18o7N0v/svgv73870+NG9RVOE/qIm+FFiadA6aNuE0/7lTiwJSSZRSjTYY1y2dDvrx5TB7y6bMXkRMjCPOh9afmJB04oubbtikK6Gc2y0Xg9JkLSi4wsZGJtiqVMQvC1wMqq1TGOPzr8X9iwNoS8rRq0RBcnGw02++QzgHTjadXoQGDR2EStvjdWNEP1qf2cmHoYfe2FVAQY12mGmnBkVotcWPobSmxDJlYrDai5BKbZSNw4eI/lLBrxVPC0jM0DRWSiTNbjR06ckxxwOQLtDTigKANdcoH1sKkdMBnz18Ct4nTYZ/Grx+mAk6UlKWwksbUlSIlnxMzFQkU6m2k8EHhlXUr5ug9FO7fzAhQzi0Rs5vji79pk+9givsooDdFNbb/l6OYEhcEv/52Us3pws7p36eLkvOeB4uPtDApHfDtO/fQAUUpDE1agCCqj7XL50C9ujVMVkZ++OgxREatxpSgUFFDS3I75IDr16sFazG8wmbZCBAvMIkiUBmwaPuhXQtwc7EHKvVVY1SI4eHpDxcuXlFzupBzaOFkO7SfoopMHMZamJQO+OWr17Bh03ZwIJl6A1FT+vu6Q5eObSBTpowm3TvS6VqFr4Gjx3qa1I6Ii0lktH692rBmWbiI5rgNiRH4/xjwXEWRRfQwBw/sAfbIiFaoYH5VTW9CWS5Xj2lw+859VeeLOImcLlFROmMMWCuT0gETH/CRoyegZz87VAY2Dz+pOQB2Qq4EO5v+kD17NpOaj4mJga079kG/QSNB741IcsAkz0KKBmyWjQApJBMhz2aUKBJtk1ATrnfPjpAzh7o0TQqDjBnnBbQY0cpICdkJc4AHW/XUqkuQ0gHT7EkjztnVW9mQ0wwNEzvq/ENr8JrkLCRflqg5BwwZDdE6b0SmTp0aGtavjWKcYSaiw5fLjgClfhElpTnYCOeFoSJGS3WKGLQAW4ipqI7OkzWFjOLTTiOG4Ftsa836ldYB3733AELDF5lVJkU0ylRmOT/cD1+zTM+EIJVoR5fJQK+FelqqVCmVuPZ6VMNgs2wESJHcF6WJfhPMv0BCtZvXLoA6taqpAvAVcqDM14GQnd70qAiD9jy0MmkdMMWBN/+4C4nJ3QwjUZQvb27YhA8a1b2bahdRF4v08X7cutvUpky+npLnd/641OR2uAG5ESAhAOKC+P3qdaEDJT1Bomulgh41dufufWUDPnT2IjWnCzuH9m9IeJYY0bQyaR0wAXAKV39deg2Dx4+jtcLD5H52oKOqig8a5c+aYrdu34WQsEiYM3+ZKc0IuZaECn/asAi02hkWMmhuJNEIRC5eBV4+wfD4idj8eyrrJTJ/tbm1lIZK6XD0haClDccMCGenYZA1S2bNupXaAV+/eRvcJ81QKuM0Q8TEjvx9J0DnH9pAZhNZ0agIhWRZPJATVW/7plI5WL8yQgjRkN5z4f7jRoD4gCd7ByIf8Ie4T0rCEQdbK4XQnza51BgVXxARD8kkaWXp06UFFyzAGIFj1dKkdsDE0r9i1SbUifPREhOT+hqAidx0I9U+bHF1RtpwW7fvxYpAp7hO0exzql5avjgUCuT7WrM+uSNtEaBVL+UAzzLDa//sUB/4HtnFMmZIr2pSREUwySsQ/hAcComvcwobjsHVb/cubeM7TfgxqR0wpWDRZlTbzgNBa3G+pCJdtXJFiAibhnHgwklt4j/XHcFd6X7WjkBKIXpa2TIlYMGcGVAWyarZLBMBCvdRBgTl34o0UojZgvsixCWttkJ0IRLDj3P3hTdv34ocSrxtNUbNOtqAo5JpLU1qB0xAXLtxCxUyPOAAliYawUiUk4hr6LVd7QMX17zOYxWQi9tU3VPxSMnWf5o7NMB0NDbLRIBksIiK8uTp80InWL3qNxAW7KWU6KtpmEQ4qQzfP2iuppvvA/p2BUcswiisslBEzVzUnCO9A47GGzI3cpmyO6tmQjKcQ8z/bVs3NVmeiEqyA0Pm4/yX6zotSqubMG4EdO30va7j4M7Nh0AEbvb6Ihm76A24IVa9FMemNiRnznLouNBLjeX2bmPtwW5Yf5M3z+PqI67PpXfAJBBIVXHtOmsbHI8LMDWf2+KNpJup9qGLq83nWAW4at0WpSIornO0+JyI2O1tBoLtsH5adMd9aIwAVZvR6pfiv6IrLxfPD1S0BNPhJpca244cELQBR1V5WlnRIoUUNRs9FhjSO2Cigrh56w4Mth0LRzVmRkrqA0Cs+gF+E4FIqE0xKkmmirguvWxQpDTGlKZMujZ7tqzQB8tIJyObFZvlIXAKww7kgLdgGEKklSheBJYsCMK82mKqw3EkDDrJKwApCF6IHEq8bTVr/J0S/61dq2q855njoPQOmCb9HG/G3MgVCj2dOUAQ3SaR8axB7oSaNSqrfvDiGsPZc5fA2sYZLl25GtcpZv88A+5et8Ey0ohZvmbvizvQHgFiP6MNOOIDFmkDMa46dsxw1SoxT5+9gOCwBUrYTfRKPL552dkMwDe8AThObSgoPx+LIRzwx48xcPrsBfi+4wAgxQzZjTbfiBmtI5I7m6qSTAUZJM+0HNPx9LIUKVIocuJbNy7SPEam15yTS78fP35E5xsBQbMWwGssARZpiQ0/HCcyIByL6JV4fHPKgcRZ7q4jFKKgVCYWT8XXT1zHDOGAafAPHj6CIbbjzCIYGBc4pnxOu6pEbaeWfi+uvp6/wDgwUlMSM5SeRlVMRMhTpHABPYfBfQtG4HcUwaWY69oNW4VmHZQsUQyWLwoGyqBRmw20bOUGmOYXBjcw5KiVET8FKWAQ4ZQeZhgH/Aq5IRYvXwdjxxujKKMqamAFzpgElSqUNem+Uuz36LHT0BVLsokfQy+jL5KZ0yZAM1Q2YLMcBFat2aIUYBD7oEgbaTdIqSrLli2LqmYp5ksZP7QR+F5wJV58Axg0AHmKMfyg18LCMA44JuYvuPL7VWjdob+mAfr4bl58xzJmzAALI2biN2sdIEYxU+zqtZuKSOnRY6dMacaka3PnygmO9oPAZkhfk9rhi+VB4E/MfvCZEQYLFq2EN2/EFT1kpj0QVFAhDhFSVFFjx1AB3A91ELdu36PmdCHn0Dg93ByVDWa9eE4M44AJcUrLGjFmoqKWIeQOmLmRiUhC3acHklCjYKcpRpVwQaHzQWt2qM/HTA9rJ+Q7Dpju8fnH/LOBESCuBV90wPsw00aktW3dBPzxOcmVM4fqZhcvW6s44Bs3tQs/1K5ZFWWS7DSln/wSEEM54PfvP8CuPb9An4EjhOcrfgmMiN9bNW8I7m4jVQsRxtUnrU6IJJvKkvUyWsVTmfXmdQsgDZK0sxkbASrtDwiZB3MXLMfiC3FsgxTvXTTXH5o3ra+aPY/2d2gjkEjY6W9cKyPinaHWvSFf3jxadfk//RjKARNT/iOkpuyKebGUFSG75ca0lrBAL2jUoI5J2QN//fU3XMY0tB4o0XQDGeL0ssKF8ivSRGppBfUaJ/ebMALH8ZXf2zcUdu87iIsZTLYXZFVw72NpZLBShKR2840EOCkN7shR7RSQ82BxkdfEMUBioWrDJIIg+lczhnLANHL65qayyQmT/f41ERl/oQfwUxgiRw7TdOIoDOE5NQii8FVNL6M8ySkeo6FbZ20Zo/Sar6X2+x6Z9gJww4tUJx48fCx0mkEzJ0M3LFlXG1Olt7tADK/NnrtE070dejt1HmWjxKmFApDIxgzngClB+9r1W9CqfT94gq9O4r67E4mcytOJhs/V2Q7Klyul8orYT6MHddvOfWA1dLTQdKHYe4v9U+I47t3jB5g62SX2E/hTQyBw8tQ5hfd3z/7DQp+lOlhJFokbz/RFrXb1e+bsRYXn5aftuzXDLl3atIr0PD3LarM0zDU4wzlgAoIIo0eMngQrVm+SPhacF+NLgbgh0bRxPZPCEBR+oWyIjt2HABVn6GGkkEzsVpvWzDc5s0OP8XOfoBRbUOx30ZI1Qle/RGhOvL+tWzRS/UpPKZbzsMI1dPZCpBvQ7pmm7AxPDD9oTT0Z2/NnSAdMq2Diyu3axwZevRJbvRMbSKZ+Nt7FAfr36Qy5cqnfFY6tT2KGc58yQ1HKiO24Fp8VyJ8XqCKuYAHThUe1GC/38W8Edu05qFRWEtkNfamLMBLdbN6kPvJg+0ImTL9Ua1QE4oVVnpuRg/ijRlwnJBVG0vNW/buZTJaldp7xnWdIB0wTot3S7n2HI1nNUV2JauID99MxUlulckcStzTFqAx7205SydCPFCcnxrL9fT2g3ffNTJkKX6sDAvfuP0Sh1yBF4uvly1dCRkChBmL9m4Or33p1a6gOPRC9wLyFy1F8c7GmG8tUmTfd202pfDNVt1EEgIZ1wDT5TaSa7OCqa4WYmptAIn/ek52hY/tWQAoBSTVasdxCjuD2XQbBjRv6ZEOQrEwvjJ35erkmdRp8nQ4I0IKF0ryI7Py6wGeHaCYHW/WEiVjQQJwhau0Krn4neforhRcx+EarhdH4iJ+Yiokoo0cGM7QDfoXkIR27D1a4Q+kbVWbr17uzUvJYskRRk4ZJ5cik3UWkJXoYrRpIomgrqiQT6xubMRCgootJXv5w/OQ5YW+MlL5FJfcLMe83Mbm0tIdDat9z5i1VqGa1QrBY0ULK6rfBd7UgtSS57IZ2wHTjKC3LzWM6UFmlzFYKyUkmuzthgnoD3IxTv1L4ck70RXPm3EVlFSzqNfLLPhL6PVvWLLB4QaDyypnQuXxcfwQod9wDV5s7dx2AV6/F8IlQ6IGyHWgzq0vHNoma5NnzlxW17z37Dmm2iU4LB+J8oNV6fonEZQ3vgJ8+fQ4dulnD+QtXhH2zJ+ppUnkyvf64YN7hoP7dTS5NJsdLcWCqCtTDKIxijSQmTNCuB/qJ6zP66TMInhWJG7frlCKmxF0d99kZ8Bno0K6lUpqeJo36ysg/8dmdiXpvS5bReLQTmyVxhKCZk6BGtcomLYDiRiRpRwzvgGnaIeELFUb/Fy/+TBoKGl1Frz5jR9sCKWaYYvQKtxnj39bDXTRbQXw+XlpNVMC85m2bFwPlVJrDKN5NcUviqyViI7bEI0Bf1KvX/ahUmd2+cz/xDcRxBb2+U8VbMLL9lUmkUvb2XfvAa1oInEYVZq2MhHKJGL5Pz07IT2EaL4voMVuEA77/4DF06z0MziOjv57SPQndHCK0oWwIehDUamTF1iY5J1IJadSyu5I/KSqdKLa+4vqMnCLxQlSpVD6uU0z6nEItVP13/8FDIM2uHNmzmtRecrv47bt3uMG1FwsuApRNN1HPCH35UibBhHEO0K5N4jJhHiONgMv4qfDTtt0oOa+dsEL1KhUhNMgLypQqLt1jYBEOmFANi1gMM5DO7kn0U+lA/nxAnVAlY6S9NfIEl/n840T/TGKlpGIwdXqoLl86tKqgmJqriz2mHiV6+KouII7YY8dPoyOOhhbN6kPOHHKtXlRNQoeTqNT4l0PHkDt7Kvxx9QaIyjL4FPcd0LcbvsnZJGpmCoXAAtp4W4KFRPcSda0pJ1Ne8nRvV2iLXxYybhpbjAOmP9bufWyVjIgP+Noqq1EhA1Hgde3U1qRqMlrRUB1/g+ZdgVYWolY4anGjmHYpzOjYtXU5UGqauYxSpqhqK1OmDMqbA238sMWNADm6X1G81tnNG/mzrwv9ciZn1qZVY/CbOh6oLD0xdhiVzZ3HeSsbyIm5ztRzKV/de5KztIVDFuOA6UZFLV2rrAgp4Vxmsx7YAxyGW6FckWnVZMRiNR5JieZiSg/FhbW21JiGtHDuTGiJxCaJyQFNzDipQurob6dxNeetFLK4oHwMxfHoVZjt3wiQ8z14+BiMHDMRKOYrUtiSKEhr1ayiFOGULFHk3x0n8Ntz3JtxcHKHHUipKpL4PYFuFT3GJQuDoTaK48qSdvblmP8PAAD//1OyLAEAAEAASURBVOydB6AT1RKGDxZEioBUUXrvIF26IgjSBem99w4C0nsTEBRBlCIgiCI2BMGCiCgI0qVIr4JUaTbem+9c9xpiymY3yc3l7rx3TUi2nJ3dzJkz888/8f4nou4SuXHzlmrSopv69vut6o8//ozYq8qbJ6fq37ujql71SXXPPffYGufRYyfVU1UbqUuXr6hw30rG/vRTZdX816eoBA88YOs6fO188dJltWTpSjV+yixV9PECatzIASpb1ozq/vvv97VbnPru99//UOu/+V716DNM/XLu16A+C/fdd58qUjifGjW0jypWtFBAev3zzz/VtFfeVHPnLVXnZFzhkvvuu1d169RSdZW/h5MnC9dpAz5PvLvJAHP1Kz74VI0c+7I6fuJUUB/CgDXrY4d48eKpju2aql7d2qpUKR/2saW5rzp2G6xWfrha/f7HH+Z2COJW9957r9q0fqXKmjmD7cnE17B+PnRUte3UX+3as19lyphevTRhiCperKB6MEECX7vFie9uiuOxZt3Xqnufoeq3364H9ZrvvfcelT9vLjWof1c92QZy8Nu3/6c2iTPUo+9wdejwsUB2tb1tvrw51ZL5L6vHHn1E8XuLVLnrDDCKbt2hr1q9dr3iwYxUyZ0rm+rbs4OqU7OK7Qdk2/Y9qn6TjurixcsxcrlMJHj0CRKEzgu+fuOm+nTNl6pT98Hqr7/+Ug8+mED17t5Ode3YQsV/IL66J4J/ZKG6Kaxdb9y4oea/tVwNHTVFYfCCKRiu7Nkyq55d26hGz9cM+NCnz/yiWrXvo3g+uWfhElZGyxfPUqVKPK7ix4/sVdJdaYB37NyruvYaonbvPRCue27pPC2b1deG65G0qS3t77pTu84D1Meffq5u3frd9eOwvMeLxwtmqRdKb4Ol9ahxL6sly1bq1Q3edwlZEs+YOlJlzPCYwluLK0K46dq162rsxFfUa3MXBf2yuY8Z0qdTHds21au1QE9w+/Zt1bJdH7Xuy2/C6ggxbhyC3t3bqkSJEgY67LBvf1caYB7OMRNnqoWL3lXnf70YdqWaPWHWzBlV7x7tVOMGtczu4nW7ffsPqVr126pz58MXZ3MdzIypI1S9Os+GNBbMj/rwkeOqQbMu6tjxUyqHeGf7DhxSyZI+pEYP66Oeq/useiB+fNdh3ZXviav+uH2vGjh0vNq+c0/QPV+UljNHFtW9c2vVsH5NCS0FvoQfNnqq9syvXv0trPegWJFC6t0ls9RDDyUO63mtnuyuNMAog4B/uy4vqG++3SIP6G2r+gnpfjzYDerVUAP6dBYP7lFb5+IaBwyZoJa+84H2jGwdzMLOxIA//XChxLRTWNjb/C4kmzZ8u1m1aNtLDHAW9WSFJ9S0mW9KQu4+VeaJ4mrY4J4qd86sisTR3SgkJGfNWaReeW2BjvmH4tl+vFA+7RhUqVTOkh6XLv9QDR05Rf164VLY8jBMESlSJFerVi5QWbNkDGk+IpjP1V1rgPGCl6/4RE2eOlsdlAROpMqj6dJoT6N9m8a2h3hEEBF1G7QX7/Bk2B58Y9AgIqaMf1E9/1x1lTDhg8bHIXm9Il7V7NcXqakz31DNm9RVJYs9rvoNGqMTUEmTJlGtmj+v2rRooFKlShHSkEhILs7LQQktfbd5mxo36RW1a/d+dfNW8PMbLN/LlSmh+khsvWSJwpZQJl98uVF1EyTG2bPn1G2C1GESYr1LFsxU5csUtzRphGmY/znNXWuAudLrkqAYJF7hig/XxIhX+B9te/gAw1Xl6fLiBXdUBfPn8bCF+Y/+/vu2miBQrbnz3tawNPN7BmfL7FkzqfffeV09mi5tcA7o5ShMrqxwOvV4Uf2wbYeEH/opoH3jJ7+qNmz8Xt1/3/0qe/bMqn2rRqpqlYoKoxyb5cTJ0+rVOW+p5e99rK5cvRaShFYCQZNUr/aU6tK+mcqTJ4eKHyDEj3vy2br1qveA0ersL+fDuuok7NS/dweBnLWK+KSb+3N4VxtgLvbHHXvUoKETtffgfvGR8u/kyZOqdmIs+vZsb8nrcL2OU6d/Uc3b9FI7d+1Vf/39t+tXIX9PUmzsiH6SMa+lkiQJbQyOyean/T+r+o07aoM0aexgVbRIQbVm7VfqZcGdnhUDnSRxYlUgfy7xkuupiuVLqaQPxS5DfEa8yPc/WK3eW7lKHfj5aMiciDSpU6lmjeuopo3qqHQyed4fYPjmb3nOPvv8a9XnH+OLMQ6XPCAImNo1n1ETxwxUD4X4mQvFNd31BpiCjPmLlqvXZMl65OiJUOjQ9jGJBRcvWlgb4KcqlrZ1PGKCy979WI2ZMEOdOn3W1rGs7Jw9Wyb1tiwFs0hMOJSICMbGvQX50V4QIKnTpFSTxgxSJYoXVidOnNHIgE8/+0r9ITHjhx9OpoqJca4tkL/yssTm35EshJDee/9TxfiPHjuhLl/5LSReLzoomD+3at+6sXqmSgWdzGRFFoj8+edfMumtVwNeHKeYMMJpfAk7lC5VTM2aPlqlSZMqkGFHzLZ3vQFG0yAhRo2drt6TIo0bgieNRCFuSkJu6KAe+odgZ4xXf7um+g8epz4R4wRUKZxCBdLQQT1Vs0Z1VbJkD4X01Dha165f15PNmwuWKeB8nLuyJI/Ivn+3+Uf1xvylehV0T7x7tOHNnCm9JOuKSWiigsqZPWvELFl/k/u0XVZrn372pfp+83Z1XMIOly9fDZnhBUeNDrhPRQrnt7RiIS69QgqAJkjo5/iJ0yG91+4HJ8maJ3d2NXPqKCkUyen+daz5d5wwwMzKm3/YrkaLV/jNxi0Re3Ny5sgqCblWQYGlbd+xV/XsN1wqx/aFBKbkS4lZxMjNfmW8KlQgryRE7vW1aVC+A/DfumM/tXXbTl359ELfzurZqk8pMuMnZRXw2dqv1WLBDh+SZGw88fCYGMAu582dQzyoouqJkkVUJhlzoEtvu4O/Jd75wYOHBdWxRX373VZ1QN7jLPz222+KEEuoBJRDQymsqFiulNaXlQIaJvaFS95Ts+cuDrvxJdRFKfq4US+osqUl6Sb/jq0SJwwwN4fZeuGSFfLALFJgSSNRiGdVerKMGvJCd8FhZrU1xD8EK0rYhR8IBiqccq8YuWaNn1N9e3WQhFyasJwab7dX/xHqoMRKgfRhhKtWrqASJ06kLggcCpz0+x+t0asCkkRIooQJNXQppcCXskkCkcqpwoXyqozpHwuZ9w40a//BQ2rbj7vlb5cCufKrGN0LFy+FvIgmTeqU6rk61dSzzzyp8uTKLljZJJYwvpeFdwRuh/mCsw93mCvK+GbSK0UgiKHkIAnHgxtnDDDKxBBNnjZHvfPuR4KQiMxQRGqBTjVv8pzq16uj7eUxUKAXhk5Qa9dtUDduhvd6MWoTJCYLljQcFUl/SqnrF19tVC8On6Rj/WBBKfV+RhAmJAQphSVBSeHC2i++kW2/VWdcJqaEDz6oUqdOoQ1ykkSJVFLxkpk80j2SVkIbqRTGK1WqlCq14JzNhFYoljh56qzmJKFohD/QDHi4lwTLiyEOh9Hluef6K0luoWb1p4XMqKC+FnDTgQrJNq5jzhtL1Eer1srv6Vygh7C1PfHpbHJfBwovBWGmhBJGie0SpwwwoYhN329TkwQbvH7Dd2FNGJh9UPAeCxbII7C0TvohM7uft+02bNws5ETTpXJqt/o7zAUp5WR5OFaYy4jVhTohx/Xf+v138XC/kOudpo1fzuxZVJOGtVV9wSYzseltZCVEWOKnfQfVxk0/qC/Xf6sOHz7+H8QIMUa858SJE6rEUtJKjB4jzSsEQEwqiRI9KN8l+g/u9OrVqxqKdUliuMTjiUdfFfjYb9eu6cRhuBJVDz74gHqqQmlh3askz1RulTHjY5bJi8idfL9lu46p8xuiICScQpk5vBSUGVcTD557cjdInDLA3DAoK9+VAo1ZgqukjDUShR93NcGvjhraV7K7KW0NkdALHv+M1+arnw8ds3WsQHfGUPXs1ka1aFpPe12B7m9l++vXb6h331+lpkyfo5fHGdI/qmo8+7ReVRCbNrL8ICjI2h/4+YgOBTAh79y9T7G/P2EyIQMPVpbXe+65MwZ5S4okWGGFokrN39j4nknjiZJFVeWnygk0r4AkG7PYIko6d/6CWinhm+XvfaJzClQjhlPw1vPmzik43xZyTWUtJQzDOd5AzhXnDDDKIQbIMmrB4ndjjEHM302CRq9Lh+aWiFDcj02Mccas+Wrp8o/CzhWB0Rs78gVVoVxJRYw7HEKl3PIVq9RMuWaW/ZSoVihbUk8EZPxdk04YSWLEVEvuEgP8vSRrt2zdoU6ePBOOoQb1HFmzZJKkYhFVUqB45BAwvHjsVlcfTN67hf7zHXFYPhdSnZjInRDjLfJ4ftVJCkS4h+EIZwX1pvg5WJw0wOhk566fhEPgDYllfR4yqI8f3fv8mlmfbPWQgT10pt7nxia+/GnfzxJ6eU3zxoYbilfz2UpSqdQpbKEI1MHyH89/liQiTwg3NJVexYoWFHKZGhIPLaNSeuBhJrNPUoyE3a7dP0mV3S5BJhySWG14l9smbqfeBMOaJEkijTbB6MLbm0t4MIDakayyI+RLPl3zlcZZU8x05cpVO4eztG8SCQGVfqKoatOyoSorPB/hmsAtDdbiTnHWAIMS+ExIrDHCW+WHFolCDJIk0oghvSUZZA9NgKdH4okkJB5eOJfHGIlO7ZppD9TudQRynzCc7638VC2QQpyDEmoA2kU8mgROdYGpgQTw9KOmgpBVw34JUeH14R3vkwmMcEW4s/7u14vR5blg7AXy5dLXQ2yUf5MctOrtGucBjwxC4+NP10l8fFPYidSNcZD0pESfqko84HBDBI1xhPo1zhpgFAuB+dvC3ARc6+SpyFxyppbMe/s2jYR4vKVHYxHIA4Ln+47wCXC9+wVzGk4BlQBpO7FtDEi45IpUkVEm+5ZAEIF9EZtNmeJhHRsFoUHlYfrH0nkdDugJEAt0dKD9E88JRQeENngPR3EoVxTgqJMK3eYjaVKrtILGSC+hKbzcrAKbI8RAqCoYQjeVAwePaCTJOkGJ4PWaiYcH49yux9BIB7k2GhXUqlFZmO2yuX59172P0waYu8kPi3jw20LjyOwfaUL2l9geoQh6yNkV+ILfmL9MGySSUOEU+Bj69mgvrYQKh6VAw7g2Em7Qki6TkMTnAlUj5otQLg3uGqRAYQn3mGkPRektxveEGN9TAjNDn0zk53+9oM6fvyhkOb9JIQWIh+v61Wwyji4OcBnAC8If5PaMhwkYeFxaKbXlD1hc+seCY3TRASshoGXfbNqiV0jgqYEvxoQQm6c0uoFwELPyC0ajgpi4jkDOGecNMG1ctv64U00XAhcqpsCTRpqQiCgpRQIThHAEEnK7QoxzpvDJfvjxZ2GddOILaxXk850locKyOdxC3J9y9I8/WaeNDrA8klQs38sJjWFx6a5RQAxAoD98Wl+R2MUbpkgBxjKq2TDGeJG3bv2hCHn9IV4mBhw8LTHa+/9BUsDmlTBhAk0WRMIwxcPyJ68sw/HWXZOGwdTZacFFb5VVAQiQr77epOPf4QxNuV4L10y8t8FzNXR1G2GruCBx3gBzk6M6yn6npr48V/MHROKNh+GfeBgFGilsksmAQ90gJdkzZs1TG77ZHNZmnhgV4sGNxBAb2Nxw6pvk0ker1gnZzSrdssroGwg3Al0gwC5jiHNLmTKeZjBijzxf+k8MMK+GASb+zB9wPSuFEVb1hg5AfEThoDdJjPuIHpfV49ndL5Pgk+GleK52NU3JGo7ydbtjDtb+jgH+R5MA5j8RRMSUl1+PscSDr5tKcgXD20equ1o3ry/4U3uQLpblq4VtC094G0Ua4pWFS/JL8ggvmHgw5bDhFsICFGCAa4WD4dcL/7atAtdL1+Uy4o0VKRyFoc2cOX1EtzY3oz+88RMSuz4qTGskYb+UhCxJRSaEmJJErD5koqtds7IuFqEHXVwTxwC73HFioouXrtR8ESReIk1IUDz2aFo1ftRA9Uzl8rYz3sCuPvx4rUC13lJ7fjoY1spASHC6SEfj8oLtjImSUpbaFF5QlEMHbRJsrpMQEx5x2CKF8wnF5eOacYuijnRSngw8KjYI4Q8jaUjREdWQTLZ4wIRCYlJIfDLJwU1RQnICd0tlW6A6dQywm8aAK+EVrhD40jUTVVFuu4f8nyzP8gnec/rkYQJDym37fJckZokRorPu4SMnbB/P7AGYTJ6WBBhGmCW/JziY2WPZ2Y7YLeXLxIb3SBdtT00kqXgjHFFMxlm4YF7NxEXXD4jMzfBC2BlfoPtCYUlCECNL5eMPwhC3RYpLTkhhCXHomBZ4KXJIt5Ia1SoJ0uEZ3Xk5pscUk+d3DLCb9vGMqP6BL2LtFxtidInmNrTof5IxJ2Y2Zng/3f7HLvbz7C/npNX7BxodwQ83XMJynzBEF4HYFSqQJ6zICNdrhBZyyw87dOcJeA4o3LgpVWCeBOpDSHogfi8gLaSgRUyaJIkY4qTaGOPJUa1l9554Orf7Z8TyMbiEF5hIIfeB0pKJhDADXn1Me7rGmLnXGWUFwWri+eee1RzEJEDjujgG2MMTAPaTpdro8TPUJokRhru1j4ch/ecjkkMd2jZR3bu00plyuz94oEgLhF5w0dsrNGPXf04Yog8IP9CpomunlhrXanA1hOh0Pg8LPO2rDZvUBx99JqxpPwmy4ZxfA4bnniVTBvHqsmjPDlwuKAqy+AZ5DyiGBwTJAtrhgQfu122n/F0nxpXn8M+//tavxOzhmKA8mMQh7HYQ/BwU+s1DR6RQZP9hSSru19C3cJH9+FTmP1/S7SWt6COf9OyrK/e5knA5gHhwJEoDjgH28iSQnKALLe21d4lHHEkPtTFkoExDB3bXPc9oPGnXCB+Uiq+5b76tizUuh7H0NJkUGtSTWGDHdk11Ga0/42Rcf6heoan8WMIStDuiYOW8kNEECs8iVv9oukd0zJ7uzNBzElPmj8IKDDfeNDjve++9T4ji46nbkgj9C4P791+CTPlTF3gQpycURinwOYG5AXU7c/a8Oi2MbsfEU49UwfBC35lREmuQ49etXVWlE0Mc0/c20vTlGGAfd4QKp6++/k4NHj5RL+d8bBpjXxGOeGnCEFVLuF6pMLNrhOGM0BjhT9aGtZ1RclnC16lVRUPU6E4R010OMLhUvK0ANyzoGN6zzA/UEHt7MDDAoAAeFIpLiOGJ7ePh6gIOMbp4urFRMLBgmKnYw/A+J4aXycguN0Vs1IWZMTsG2I+WqGrCExo+eqpUPV3ws3XMfE1iY+ZLI9VTktRiSW/XCO+WGOJLAsej2WIoy2zdtcV1VBeu1+5dWusOFZGAB8UjPSKNMZe+86Fa+/kGHZbAEPO5I/9qAE8e756uyjWffVow6zV1IYnj8f6rI0/vHAPsSStun8EnQE+xKdNmCxH1FbdvI+Ofj0iZ6oypo1Spko9rYL9dIwwsbfykV3TprlGsEI4rZQJ5WjgaKDjJKdlyiNEjQaiao0T3/Q/X6BjxcVn+gx2PrZ5qsHRKLkJ3DxGyqOeF+J4y4oellNru8xes8UX6cRwDbPIO8WOb/9ZyTfRN8iMSBajUtEnDpLdZEU2/KFBWy0LMm5Ll8dLxFjRIOI0wGfPyZUuowQO66zLhcFaJmVEYuli1+gu1UjDUlPJel87MrBTiildMOIHKQfDQGTM8pik+69WtpkMpZvTnbPOvBhwD/K8u/L4jIQK/LBSW4Vya+x2YywauRpgfiV05cvSEGjtxpuZN/l1a/oRL8HyLC38vbeYLF8xju/IvFOMmHnyMOLFgxj9d84XwS5zWcVyYxTDGkZi4taoHQgmgOHimIAWC0vPZZyoKq1xBq4d09hMNOAY4wMcAw/uScEbQbYEfWiQKRniqeMKlpS1NMIhcAPFjhFd8sFoTyoTrmlnGQr04WJowAl/CAESy7P3pZ2EU+0ZB57j7pwP/eMV/xVpjDJLhPkFosAJJKc1In5Z78GzViuoJWWHZLYWP5PsYzrE5BtiCtoGojZ0wQ70q3jBYzUgUbYQnDpVyz2Iag2p3jCQgISuaO39p2K8ZHtwuHVpo3HMwyHHs6sLM/nQMhmFs3ZcbhQpzs7oiBRO3/3dbUBT/E8/4tvyZOUp4t8Hgxot3j25VzwoET7eskBPR0aSkGF1QG44EVwOOAbaoT3gDXhwxRc2d93bYDZLZIWOEpwhErXyZkrp5pNn9vG0HRAo0wKBhE8N+zXDl1qn1jBo7or+mkPQ2xkj8HE4GYsVwEn8vfLtwUIQTZ21GJ1TwUUxCWXixogV0pRrxXUdCqwHHANvQL97v9FfmSZuf2RGZDWcJn+6R1Gr08P6K7g/BiAkTgoHUvFuvIZr31ob6At6V8ZcSXuRXpo3W3lnAB4jBHYgX4/3iBV+/dkNTQMJPTNiCvnMwk52XNkjhEApf4LKAW7pQobza2GJ8kwoznasX7CAZQn83HANsU8eEI95a8p4aOXZ6WMnNzQ6bHxGlsUMH99R90IKxjCQZt33HXtWh6ws6CWV2LMHYDoREbiFQB+0Bf0RsFJJzGGR61P19+2+pgOP1tlS7/aZ7zp0+c1aT6Zyjw4ZUwP32m3TXoCLu2jVdHHP1n3+DvoDrATQCvApwUFDUQRk0MVv4lumqkSpVVGeNqI4aafS298hzcY+uwrtXF72QZHMMbvifJscAB0HnN6WC6UOpHBsyfIpmogrCIYN6CLyatNJTrJ/0ZKsry3iW83aFHz7csn0GjBZi7y1BqxAzMy4KNLgeWpW3b90oYrDCZsbuaxsMM6EtDHOUxxz1qg22fMfr/3QMGU866t8Ekyljxni6/mFQ75U/XqP/MLiOofV1C8L+nWOAg6RysKFr1q1XA4dM0O1pgnTYoB0myginEiL05ur5ejVM9T/zd3KMBAQ2xMFnvrZQE8T42ydY32NsoIIsITHL8WMGqQwS73Y8uGBp1zlOuDTgGOAgahoj/PU336vhY6ZGt0EP4uFtH4plJ7SJTRrVka4az0vnh+AkWaBEpL3N0FFTBAsLsflt22M1ewD65WWU6+jVrY3upOvAo8xqztkuEjTgGOAg3wV4ZLfv2KPGShkvRNgx2fLF26VBfANRSjtZvheQ9kDBEMIwe6V8efrMN9XnAr2CLjFcwhKbXnOVK5WXrsvtdNcKPnPE0UCka8AxwCG4Q3Qe2H/gsJo24w1dxguhT6QJGe9SJYvoGCptgYJhsKj+OnX6jK6aIyxBAQdhinDJQ0KMnjdvDtW2ZUON+iAp5YijgUjWgGOAQ3R3SKZAcv7mgmVquXTghcs10oTMOS12WjStp6pWrih0lsExWBcuXtbk4HPmLtYhmXC2dqKAAPxz0ccLqJbN6qvCArOi67AjjgYiUQOOAQ7xXcELhCtgweJ3FbwKkSbEUOHfpdqpYf0aQoieIShDBCVx6Mgx3Xl5iTQ6PSzX7tr0Mign8XEQvF86VZQTUp/6dZ/VJc2RXsrs43Kcr+5SDTgGOAw3li4GELvPW/iObnX0ZwQ0R3S9bMIPYEbLlSmu6QTLlS4RtP5sdJPYvnOvWvruR7oVOly64RTa32QXWstKFcto0vrMMtk45ODhvAPOuXxpwDHAvrQTxO+IA1OOunDxCvXF+m81wD6Ihw/KoQD055ekXO0aVXSfNkD8wRAmHNodQVLzroRj9u3/2W+vtWCc1zgG8LRHpCKQvmRPVSytjTEt5iOB8N0Yo/MaNzXgGOAw3neSc3Dsvi+sYis/WhORbY5gvkr/WDrNfFVP2skUkVhqsPC1lNr+KM1OV3+2XicnT546E0btK21w0z+aTuUUhrViRQoIR0YJlUuq6oJRHRjWC3FOdtdowDHAYb6VVDMRF14nJOfLln+ktu3YLcQ2kdXeBoNLk88SxQrr9jLVpE1QMvl3MITYMMnJH7btUF+u36QJak5LE8xwig65pE6huzDTWr5U8cLq8cL5NZQtnOOILefinsGGd0ZKpOn3RudnehE6Yl8DjgG2r0NLRyAW+t3329Q7Kz5R6zd8py5FYKsjihqyZs6gqlapqBtmsoQPltwSPonDR06ozVt+1PHxTdKBOiaQIsDxsmbNJHjonOIVFxQmsEIqU4ZH47yBoQPMz9LyHpKgc+d/lVbyD6ucObLoBpspJTQV001Tg/UcxvRxHAMcg3cAQne6EH/yTwt0YqORJnjDFG6UL1dSk/lUEMzwww8nC9owb0j14EH5kW+SyWjDxs1qy9Ydug180E5g8kAPUFGXPp3KlzenICay6XhxntzZ40xHX1ZmFy9d1veCMNmBg4fVL2J4kyVNqnLlyKry5smhCubPrQl/TKrU2cyEBhwDbEJJod7k7C/nhOLxWx0b/k74YuGPjTSBhSx7tizqyfKlVEX5K1lcmn8GoeWRcZ3Xr99U+4WWceO3P6gNQmC+7cfd6sLFS8bXYXtlwnnoocQqW5ZMGrqWK0c2hSGmM0c6aTx5NwmwwF8lLv/z4WNSOHRIG98D4vWyEkkujTVZEZQtXUyHZ4JB4HQ36S5Y1+IY4GBp0uZx4NndsWuvtP1ZI6W830QkZphLBDdcROKloAnA2BaUGGow0QQUbVDSDKfGdxKW2LV7v14C21Svpd3hznhIuHNzi/HFA8wjCbtsEq6ASzdNmpSxsgkloYVTp8+qY8dOqiPHTujn7KAYXQww/NZQfRaTXnylZIKF7pOYryOh04BjgEOn24CPTNnuqVNn1aeffaU+/vRzDVuLxOafeIkgB8pJp41KT5YWb7iwyiHLVKgOgyVRhviA2vTdNrV1+y61c9c+TfQTrOMHehyuLXnyZGKEs2nyHxJRj0irpNTCQZEmtbymSqn/jW4iSeAY/vXCRQUW/cTJ0xp5c0g83p8FFnjoyHF19epveuyEXkCGlC5VTBXIn0uTs0fSddytY3EMcATeWUIQPwqhz4qVqzXXLhhaYnSRJpgalqqVniyjKlYorYoUyieVdOnFI74vaEP9448/taf29YbvdZx434GfNYoipicmDC10mBkEspdBknZA9zJJC5+UKZNrxrmkwkvB9w9Jkg8ESTB14km56OO6/F2+ckVdvHhFG92LUhJ++uw5dVr4OY5L9+YDB0moXdCe7gMPxNchFTphULYNHwihFgeS50m7ofvMMcCh062tI2Nw+bGsFm/4o1Wfa9gW3kykCpV0tCqvWK6UKiT8EhgkMMXBEuKVZ3/5VU9IsM2xbD4uHt3xE6ciqh0U4QmaiKaWjhR0IgExkEaaWyYTQ5wkSWIdX0744IO6Rx9QLsqj749/nxjo+1V80RefoTcI12/d/F13of5DkrUkbH+XyegP6cAC8xzJy5ticGGdu3HjlrSH+k0X95z95bxeRaEbQg23hJ3PdfLmPjFJYngJMZSUFk9ZM2eUxq2R3XE6WM9RpB3HMcCRdkfcxkPxxgFhVluybKWgBLboWN2fEdqJmaE/Komqyk+XV6AlCsoPnJ50wcaMgptmCU1oYtu2XXopjSE+ffoXbbAib62gNK7aCFPAyYwRfvDBB3QcmWQmKAxe+UsgxpD+cVevXhOv9oZub0/7ITxcQjOEDS4JB/NlgTLqPz8TMwm0RyVkkkFQHpAv0VevgCAa6A3nSMxqwDHAMat/02cnLLFWSnkh9tm9d79ehoeT6tH0QP/ZML384CngKCv8ErkF1pUuXRqdwAv0OP62x7sDygeOeOu2nVovFHbgCcLF7Or9+TvW3fL9vdJ66GGJV0fFp1PqxCHdjkGupJXkocOFETl32jHAkXMv/I4ErwisJv3nPpEk3T7JXJ85cy6ijQzJqqcqPCEx4id0hp0lekLx8kKRrCJMgTH+fst2Cdns1Emni1LgEuUpXlUUf9ytBhlqUeLx8HekS5tG6xoqziKF88lnKRyj6/fXFTMbOAY4ZvRu66wYEVjGYBhbtfpLdViy2RcuXtTLVlsHDuHOwJngXnjm6Qoqn1SdYYgh/wmFITYu46hArShu2StGeZ/8nZJSWioQWdqzjCeOGk6KTGNcdl5JfN4nMeIkiRPr7seEF0j0EV7IkzuHRjI8LslQb2Ef2mZx3fdLojRhwgQhTw7auda4sK9jgGP5XT4h2e2Fb6/QbYCOHAVWdC2sXSgCVR9Gl8RPdWmJRIyYpFByQQskCANpOlAswyD/JFhjcLCQxxPewTDhIf8uf3AfxLSnzMREMg7cdYIE//zJ+4TCc5wqxcM6iZYrZxZdIJIzezZtjD3dCyYYWtqTwCV5d03ec61MiCA4Esv9cCTmNOAY4JjTfVDPTFKK7huU85IBv3btRkQbYjy07NkyCZa4hCpTqqi8z6xLnvHmwpWRpyiBSYvSW7zlU8SO5e9XqcC7+Q8CgeIEDDKJT17/0u//1FAuQkJWBS4FA/Hw72sUCoKqQ5J0GElWCsYf4RwaqdLxw5dgYDG6UKDCQEeRxWG5zuvyTDwuIYknBTJID71Qrj58jc/57l8NOAb4X13cFe9279mv5i9arjZ8s1kbFH6MkZysQ+kYXAzwk+Wf0Em77FkzK5bWiRIB1wo/PAroFt4yibxff70gmNpL2lOmbJeihgv8SWwZbxnd/k8MMbAxvGb+MMy8YuDuuSeefo16f0/UZ/I5bHOpxPtPlSKFJMvkVWK3KcWz5f0jEsNlZUBc14zg5YKQwJPn7yeZUDZLQ1ioP09KYU+2LBlUPekKAkyQ5JwjkaMBxwBHzr0I6kg2SyKKNkiQ3BAvJu4X6YYYBTwoy214Fyo9WU7DpTDMxCrxCFmKR5JgZIGJUSxySxAXf9wSrO6f8ifv8ZQJIcQnhCATDHjfB2T8TDa8B6lgVTgvuGAmV/7OnbugvtuyTf5+1FwaV65c1ZjjHKK7po3q6A7YDuTMqrZDu59jgEOr3xg/OmiA5VBeSkukM1IVBXA/0viHvSkJA0ZBB+Q/5YV3oliRQtqAERdlmR6X4FR4uRh2DP21a9fUTuHI+Pa7H9S3m34QDpGftAox6vTCyyxhitYtGqo6NatoQ+xNv87nMa8BxwDH/D0IywiIb374yTr1jiAnDkm8mB8y8U28qdggkKhDi1nmiWLaIBcWQqD0Eh+FCOhe+bvv3vv0azD5KGJKL9wTJsm//paYs7wS6gDb/O2mrUJStFlWNVul5Phq9PCYiFg5gISgw3XTxnX1iiF6A+dNxGrAMcARe2tCMzBihOuFaWzx0vc1XhbUBN5VbAhPuGqEmCq41wL5cqv8QiSTL28Oec2t+XtJasWT2Os98e7RMViMdyQmnDC0/On4scSSiR1zL8B6A53bIc1M+du9Z58kVs/8Z7LE430gvoRscmVVHds0VTWrV5IVQmSFaVzvmfP+vxpwDPB/dRJnPiE7Dv0lhR0Hfz4cnTyKzQqAACev4GEhVc8hKIvswnmQM3tW6eiQTHvLhiE2XrlW1/fBvnZjhaHXGf+sNozP4G+gPdWxf2ghSZ79KC2qjhw94bNpKRMKIRhIdLp1aiHJtfLBHrZzvDBpwDHAYVJ0JJ7G8MDgF9gmHZuXLv9QetVtjBEi9GDqB4Mq/xf59zVlimQqs5DO5BSDnFHYy9KmSa2hWJTrAvMCixxsAQIG2f7Zs+f16xl5pR/eUTG4wN4gnNfxeDxhOblhmI1X9/FgeNPKeOs996yO7+bPm0s8/Mj07t3H7vzbswYcA+xZL3HqUxyz27cl5ijxRqBXX0mPuo8+XitJnq0avH83KAOjDMF6PDFYrtCwKGMdTyf3iDED/4rCIkchFkj4aeSCoBeM5B/6AH1A4Yb+u0lyTIo4BL4GKgId0lUC7LAxyenXaLhaVLjBm6F11zfjKVu6uKJLNbSRJNqIfWN8HYndGnAMcOy+f0EfPbFgCg6gQIQOk87Fq9euF3jTFm1kgn7CCDkgDrOrcTa8ZzHZvI0OUxjhCm08ZeLCd9WRBe3FRr1Hh3Zj6kwGRYUgHa7lsqVL6Ni2pq4UZIgxhghRnTMMGxpwDLAN5d3tu2JEojy83/Vy+YuvvtXGGNYxKq0cCa4GqHSrIM1PKUiBLpIkY5QH/oAt3HBwR+kcLZgacAxwMLV5Fx8LY0wxBygK+AT2CUcxhnirxI6puCKObHZJfReryfSlET6AsJ2eekUfz69gLsuUMb3G7SaSwhMqAJ0Qg2l1xtoNHQMca29dzA0cQ0tRAG1wjI4Me4TcZvvO3dK7bb/as3efhlL9/fftmBtkBJ4Zg4tn+7gY28IF8wlu91FNokPJMZV+FJ444YUIvHEhHJJjgEOo3Lh06CjvWLo2SHt5ElEnT54VToKDusPxnp8OaGgViau4JBhcMMqwvuHpppdCiaSSUEucOKFKnCiRhpI5BjcuPRH/vVbHAP9XJ84nQdAAHjLhCmLFhCwuSHHBYenGe+DgYXVUoFi0Dzpz9hfNz0vSLzYLxDoZ0j+mmcoyCFNZevFsYS2DYAeDC7EQ/eBAUzgGNzbf6eCP3THAwdepc0QPGtCMXeId/yY8BjB3aRiX8NMalInRWFmBcP0izTfP/8NCxveRIMRjMaZRHZDFyApHBXy6eLUkyxI9mFCztxFKIKQAkxudkB2DGwl3L3LH4BjgyL03cWJkGGZ4KaI6/MLuRVxZMLaCqeWPODN0kBcvyZ+Qp0Ogzt8l8ahJ/AGX+0sal4K5BcesuXv/+TcsZcSrqRoz8Ly8p1zXYCXjPQmvaKyvcCokFpwtXutDD+G5Gh5sIt3Bg9BBIh1CwOBGhRKI3TriaMCKBhwDbEVrzj5h0wDoC7zlm9ogY6AxzFFFEBhYvifZd/t/Udjb27yXz/Tn8gpGF84ECNAhreF91GvUv90/p8ABLgltqMUwx5ewAQaalvFxiX0tbDc4jp/IMcBx/AFwLt/RgKOBmNOAY4BjTvfOmR0NOBqI4xpwDHAcfwCcy3c04Ggg5jTgGOCY071zZkcDjgbiuAYcAxzHHwDn8h0NOBqIOQ04BjjmdO+c2dGAo4E4rgHHAMfxB8C5fEcDjgZiTgOOAY453TtndjTgaCCOa8AxwHH8AXAu39GAo4GY04BjgGNO986ZHQ04GojjGnAMcBx/AJzLdzTgaCDmNOAY4JjTvXNmRwOOBuK4BhwDHMcfAOfyHQ04Gog5DTgGOOZ075zZ0YCjgTiuAccAx/EHwLl8RwOOBmJOA44BjjndO2d2NOBoII5rwDHAcfwBcC7f0YCjgZjTgGOAY073zpkdDTgaiOMacAxwHH8AnMs3rwH6y/0lPex4jSf/i+RecH/TlomxyuXRdommoo5EngYcAxx598QZUQRqAKN79epvateeA9Io9IbuG/d44XymRxpPtnxQOiaHw2jTI+/QkWPq5Kkz0rD0L5Ux42MqZYqHpUvzvabGS++7BNILj67OjoRWA44BDq1+naPfBRrA+J47f0G9MX+pmjR1tqUrSpI4kZo5bbSqWrlCSI0wY921e79q17m/+vnwMd2cNJABx4sXT5UsXlj1791JVShXMpBdnW0taMAxwBaU5uwStzRw7vyv6vU331aTp82xfOGtmj+vundupTKJNxpKOSFeb536bdWRYycDNr6MK8XDyVXHdk1U354dQjlM59j/aMAxwM6j4GjAhwbO/nJOPN9latrMN9Rff/3tY0vvX2F0Z708RpUoVljhYYZKrly9ppq36aG++/5H9ceff1o6TfVqldSQF7qpHNmzWNrf2SkwDTgGODB9OVvHIQ389ts1teLDNWrA4LHq99//sHzlI4b0Vk0a1tbepeWD+NkR49uibU9tfH//w9pYM2VMr7p1bqlaNq3nJO386DtYXzsGOFiadI5zV2ngxs1b6tM1X6rBwyaqX879avnaihYpqKaMG6zy5c0lRi003i9Jt8EjJqkFby1Xt279bmms8ePfr5o2qqv69uqgHkmTytIxnJ0C14BjgAPXmbNHHNDAxk0/qEFDJwjqYb+GnVm55ISCepg6eZiqVqWiSpwooZVD+N3nr7/+Uh9+slb17DdCXfvtuoad+d3JwwbFZKLo1b2tqlKpnOP9etBPqD5yDHCoNOscN9ZqYM9PB9W0GW+oDz5eo/4UGJdVqVenmho8oKvKmOGxkMR+/xacLxNEg2Zd1DkbXnqSJIl0grBzh+aKScOR8GnAMcDh07VzpliggV8vXFJvLVmhpr78uvrt2nXLI06ZIrlaMHeqwrMMFfb3qsSo23bsp9Z+8Y3lcbJj7RqVVZ+e7VW+PDltHcfZOXANOAY4cJ05e9zFGlizdr0aNvoltf/AYVtX+eIL3VXrFs+r5MmS2jqOt52v37ipFi56V40a/7K6KfFqq0LirXePtqrBc9VV/PjxrR7G2c+iBhwDbFFxzm53nwZOnDytZr2+SM2d97at0EOhgnnVq9NHqxzZsqh77w1+CfDt2/9Tx46f1KGHgz8fsXwjSLy1bFZfdZHQQ4b0j1o+jrOjdQ04Bti67pw97yINEOt9b+WnavzkV8S4nbJ8ZQ8+mEC9NHGoqil42oQJQxNPvSIl0bPfWKImvTTLMjaZCyQ8QujhqQpPOGXHlu+4vR0dA2xPfxG/9+UrV9UFiWumTpVCJUmSOOLHG1MDxOjOmDVfzX/rHQWsy6rUqv60GjOiv0r3SJqQJN4Y18mTZ1TdRh2UHe83sZRG9+nRTjC/9VWyZA9ZvVxnP5sacAywTQVG0u7EArdu26W27ditjkopKoUENyRWCKY1kXhj8YVg5eHkSVX6x9Kp/IJLLVggd0iLA8zq5sbNm0Icc1YdPHhYHTtxSuNuz527oDwVFMS//36VNUtG7V1mlGVzgfy5Vfr06YSbzJ6s/WKDmjB5ltr64y7LB3o4eTK1aN50VfTxAiFLvHE/P1n9herS40X1p0DQrAqJt17d26kC+XJZPYSzXxA04BjgICgxpg/x86Gj6utvNqsftu1UhzUL1ll18dJlDcqHnMVVWBYnS/qQeuSR1KpgvtyqpvwQnyhRJGQGw/Xcru+vC6PYkSMn1PdbflQ7dv2kzpw9pwlvLl26IuiDa+qaIBA8lf7C1AXCgIRRcvHc0qVLq9KlTa3yiSF55unyKk3qlAHjWAk/EPcdN+kVW8iHvrKc79WtbchCD+jv7C/n1fDRU9Wydz9yVWdA74n3DurfRdV89mlhaEsQ0L7OxsHVgGOAg6vPsB0Nw3pBjOw78kPcuGmr+mnfQXX8xGlZPpvnK2AZWqrE46pNiwaqosQB8S5DLVSV4WVu+k7GvP9ndfjwcXXqzFn1xx/WuAsYL8mkxx59ROUXI1y+TAkFnwGkMmYrz87/elFzPbw6e6Hly8+bJ4daKLAzeB+AhzGhnD7zi55kbv3+b3UaBRmsQLJkyaAekYkjwQMPBHTOI0dPqMYtu6t9ojsrwj1uLfe7Q9smeqy/XrioDsk9OC4rj4sXL0d71Ux0SR9KIsm5dCpr5ox6wrZyPmcf3xoIqwHG0/hu8zYxFtYeHuNS7pHM8pPln1CZM6X3G2fbvnOv2rP3gLp+/Yaxe8CveI0lihVS2bNl9rvvlOmvq/NCXWhX0qZNpSuoPJGi/ClEKyxDP1v3tfZ8+aG7e7pmz48HVL3qU6pHl9YKIxIqwXPD292wcYv6cftuhdeOoQq2ZMmcQZUtXVy1bdlQ5cyRRTx7/5MKE9e0GXPVPCnltSqd2jdTxYsWVIcOHdNhFOLuF8Sgcd3cL0MSJHhApUr5sEorxrdg/jyqzBNFVa6c2RR0lWYEeNxT1RpZfp75zVByzEoBJAWcwXr1ISEfcM/GBA6BO2GrVJI7YMIoVDCPntxy5shqZpg+t9m3/5CsevaqK1d+87mdry+xAWmlZJpn15NQkr3ig9V6JeXpe7OfcQ5++2lCVJ4dVgN84OARNfO1+erL9d+avf7/bMeDQQzw5Skj1aPpfCc6ePhfEoP41deb1M1b1rCSeAI8dKOH9RMDnOk/43H9gIe5Zr02Ci/FjgDcx5ObPH6IVFH9Cw/CyLJEf+vtFfrh2ilL92AInljXTi1VZzEiwZbfxbPd/MN2tVp4Fb6R8l4ML3HMUAoe8dNPlVO9pbQ2X96cfj37YBjgsk8UU9dkkif2fuXqVaGCvDP04+l6+XEXLJBH1a31jIy3rCnM8AGJk1d6tomO73s6pr/PMCTpH3tEXb92Qx0X2J0ZxwQid8bKxFa/7rOqojg/dmTqy3M14gQ9WZVkgq/u1K6ZatyglsdDwIXcocsLEtayzuNx7z33qvLCifxC3y6yWgkNP0ZYDTAVRi+/+qb8CI95VJqZD/EgiLX16dHe7+ZLl3+o8Ej50VuVFA8n01jJfr07qgf8ANXhD+jQbaA6JQklO/KY/EA6yhKxS4cW0YchHnr02Am1QMD3xP9YNgdTmjaqo7P3DwURKcGyds3ar9UqMb7bJOwQCo/Xlw7q1qqq+Q1yiSfsq7sDsK6ZgoCwQznpaxy+vmNchcW77Nqxpar6TEV1v58uFEwWHbsNUpu+3+rrsCH5jpUgRnhw/6463GPlJExQ/YVd7ouvNlpGm7CqKfp4fjV31kSNNvE0DrxfzsNKxKqQa2ghzHAD+nQOWY4kbAb41OmzauzEmXrms0rtB6idMMCyt17xCxyngwE0gmtkmW61UugBQQ3A4TpxzEDtBfu7ke++/4l6cfhkW+xZeL94GONGDlAspxG4XffLsu2NBcsUk4pV/fkafy1Jxg0f3CsohOHEczdv3aE+WbVOfbTqc73EvS09ysIteMJMYu1aN9LxVl/n/+iTdWrspJkSWz3ka7OQfIcRrl7tKQ0L81cOzCS27N2P5TmbaCtubvVCiAs3rF9TjR/9gqVDzH5jsZo15y1bWGtCOCA4OrVr6nUMJCrflN+LnXLyxwvlUwP6dlKVZTUVKgmbAX5feFVZeuzas8/ytSSSBAZdBfqLN+pP3nnvYzVhyix1+Mhxf5t6/f5RybD37NpatW3VyOs2rl9MmjZbzZr9lrp0+YrrxwG9Bz+KwejZtY3eT0PLxHtcsPhdhZEIhfHlRBiAYYN6qmxZM+nzWv0PxvfjTz9XS5atlHj/j6aWuFbPZWY/kmLTJw9XT5Qs4tMLxkFYsuwD0fN7soI5Y+bQQd2G2GzPbm1U88bP+TzubQlDMdaRY6apDz9ea5l43edJfHxJYjNn9qzq/WVzAo6LwrPRq99wyV1ssDxukojFJNb+2oyxOvHqbaiNWnTToU6rvxe87Do1q6hRw/pqDL2389j9PCwG+PLlq2r8lFfV2+98qBsbWhk0nmGhAnnV7JnjdPLN1zG40X0GjFLrBNsJBtaKEG4oU7qYmjZpmM8b7Xrsbr2HKiYaM3E11/1c35cSSNioYX1UkcL5NYyMpfv0V+fphJvrdsF+X6t6ZTXsxZ4qs3ADWBXi0yQHZ89dpPZLrNIOk5jVMXjab+jgnqqZhFhoTOlLDslk/cFHn6nVa7/SqJJrEicNl5CEgwy9Xy//zgXhqJ8PH1WvSdn0N99uERSD9ZCelesjZzB5/Is6SRzI/is/WiOVhq/a4tkgFg3Ur32bxl5PjRNQrlI9dVBCj1ZXXqA/yIl0aOvdy/Y6gAC+CIsB/nrjZjV2wgzJgm8PYGh3bppcCgiGyRK5RRPfHgJ7YQSGjpxiy/sF1tRNElO+bvSdI1TqmZrNBGK1W/Crf7l/ZerfZJ3rSZKDWRd40t6fDujqLEpkQy0kM0YP72cqEeRpLJdkkl36zgcS45+nQzBWURmejm33syqCDx46sIfKkzu730MRD97yww619vOv1W5BzxCzJJHjCZPs92ABbtClYwtJ9vY1tRf6vSwoAoza+g3faa/9sCR/mQRDrXsgfpQw+woBuF8ESfDe/UdJSGqdZQeF/E/5siX1igYUhzchx1S1VjOFI2ZVSIryzJDEDaWE3ACDgQSJQPKIuKwVwfvFI1w8/2Wp5Erm8xDc6AGDx2lPxmrSB2hWpSfLqDGCfKDKyowQ7K9QpYGG9ZjZ3tM2uXJm1aGH+nWra1wmxQH0I3PFkXraz+5nCeV6O0o8bYg8cFaEcudlyz+ShOcc/dBbNQCsOh59NK2O85MMxJj8uHOPrUQK10NYZcZLI3W3X7PXRxUhBSLvi4FbJis32McQluBw5mIMgFHZqUZzH0sgBtjYF11jaEDETJs5V4d9XCcL2NhwCKg2tFNibZyPV1YSA/p0ktBcQ9ePfb4nHNV/0BjNX+xzQx9fwqs8SPiVnxcnxZcsX/Gx6jtwrOXV9kMPJdZY6YGCfiCPEEoJuQEGbD9wyAQ9S1u9kJQSdB/Yr4tqLZ1l/ckWSf506TnEVp082FuC73VrPuPvdNHf44W017AXa5MM8DoquUYP7yuY0MRq+YpP1PRX3rwjoQckjuUfhprtMRC/CNTOrnC9PQUH3MgLpMfX8fEYibePn/Sqjn1bNb4swWERI+6Gx0osnITYGFk5EVO2IySO5r8+RdqslwroMDgMi95+X0hvXoueBJkYajxbScc/TwgigS7EW7futG2ImfRZcfGcWxEcgGZte6ktssr8659iHOLflaXDhbjE8hxd0PkXoJJ2il4YG8/gpLGD1bNVnzQ1VCaEoaOm6AQyk6oVYcJ7UoqFZk4brZJLJacvYfWL48KkY0VIvvUWnoxnnzF3fVbOYewTcgM8R1ibXp2z0HLWU3u/Ulu/6M1ppngLBg+fpJMply0mwh5MkEBVkwdrsvTxomTXrMxb+I4aNe5lywk4cI1UpJH0A7lBAtGVbAVEBsB9fvwN6tXQCaUxwgVL8YDVOJdxbRi8F/p2lhh7HuMjU68kODC+Q0ZM1hAzq8YXL61smeLa6wD/bAhL//lyfePEuNsRJq63F8zQWFuzx6Eg4VuBeg0eNknt2h2VOMZDLymVg2+8NlE/i3iUJJWbtuqhq96sXj9jotqMJBxwwECF+89E0U88TMO48rwAnwJGBf8HhQlz3lyiXn/zbVurNMZGwvDDd98wnRsBF9+p+2BdKm8UegR6jZyT5DsIDH9iJxQI5vm52lX1RIjHHWoJqQEGDdCjzzD16WdfWY6hEeuhUSCVTf6Essr6jTupnfKDsWqU8C6Jb9WrXc3f6e74vrtcJ7Faq0UGELiQXGD5g/EluWII8WAyvxhJsvkIDzJZ8HbidVt9qDkOnhcoj36iY7PVWOyHV7P+m++FFGawDi1ZNT6U5j5TuYIkPJqrwoXycuhoOSMVfnPEYIDPtSPELN98bZIqV/Zf4+7veBTxvLlwmXi/s/WmhB4gLwcpUlMYzwwBIli3QXuNyzVTfGHs5/5K8hV8O15eIILeKSGGHW23tCcynvuSxQuraZNHqOxZM0ZzY3z3/Tb1okyWdgiHMFCPSzhwzYdvmR4msLMZr81XZ86cM72P64ZMJoQECSP5I7gnLFSweBUphrFWZYe96SZIKziSwyEhNcAffPyZNiZWS4/xXPhRvr1gpiZg8aeQhQIhAmsM34AVwdumtHHKhCF+b7Tr8TGA1Wq3UNu279HxNtfvzLznOuvVrabaiSEEQO7KScCYYC4jMWcYX45JXA/IFFhnO7G9AkLIw3ILGkWzwvlAOTRr1V2R+LEqQH3KCtKku4Q/XD1f43jwHYyWEMQnn35hfGTptbCENibJioY8ghmhdPizzzcI1naSTsKxD6GH2hIeGTfyBSHbSRB9GDxOPC5K3q1OQhh3VjX9e3cKGIcN0mSRVEb2HTgm2vgmTZpEo3cqVyov8ep/xwq6Y8z4mZJc3B89/kDfkAxvJaHAIdLxw4yACGrWpqfa+O0PlqFneL89ZGXYokk9v6eko0mbTv0tJ/pKlyoqE2EHCVeV9HuuYGwQMgNMcoLlG0vUK5KksSIPSxUaqIeh4nX4E340rTv0U59/udFy2THQE8obSUgFIqdlZq9Qub7l6rQUUnEDL2tOicWOkQmEGn0Ew8zD17lDM9Wq2Z32rwl4AAAynUlEQVTxb374xNVYUhpeTyBjNo7foF51/cBxHjPCueCe4N7SjdeO5M6VTScda9WoIlWGdyY7OM/X4mF3lXj+KTmfHcHDHjKwu8qTK7upw7BkfuW1BbrwhR3w+goXzCce2Ig7CnIwuHha+Ys8rcuQTR3cw0bw8VLZ2VVQEIEIOgKl8WydFsI5EeV03Cu5gQbP11Qjh/SRMMmdCetXxRMFukbnDysSL148DVN8aeIQjUYwcwxoAHoLJNRqeT66L1e6hJo4dpCmIPB3zhGCj571+luW8PL83lo2i6p8o9gjHBIyAwxOsWvPoZqAxcqF8CDB9UprF8hK/AnJvgZNO8vDZQ1Ez43GYwAGZNYYGWMCO9pDAOZWyUWKSPihgsBrdks8kfgvwsPOcghvw1PhCQiPSlUbCR70mGXPK51QUjLbcw6zgsGhwmjk2Olmd/G4HUU1Bp7TU+iD8ywVZMULL47zuH8gH2LYmFQprPEnxEqpaCSRA7SO+0DSCfYwioBcxQjD1JPlvx0pJ3Fvwl7lpMzXrBjGH4NDnNyQTBK3fGveNJVbfjMYFEMYa+8BI9X7ENRYJKaCAhTOC5qNJkrkv9sHE8TAoRN06bzV34Z7YZJxPZ5eWZlVr9tSbZGkqJWwXOrUKYQ/pJ3q0KaJp8OH5LOQGeCXX50vbVMWq9NStWNF8H6bNqyjRgzpbWr3SVNn66U7kCgrAkFJRwFd05o7UBkk3iCdFKyUPINmqFaloiQ00qr5AtXDACBAnaoJN8C0ycM1K5XrmHi4duz+ST31TCPXjwN6z3nr1YEroZ3KlSOrqX1Z7oJzrt+4g+UfMSfi3FTeYYC9Jf72CAYaZIVdBARG6PVXx6uqomN/1I8YDLDqk6Wi8YuvogijiJFXkYl55rRR/7kP3O/eL4zW+GdTCvSwEWXI3Tq1kAScxP8lzGFWiD1/K5SezVr3jGb84vpGDu2jE3mM21UIFXWWeP33AgezKhhDPHWajZoR4uiQU7kmk83sZ2zDc0IoYMLogX4rNJmQTp3+RRUtXV2836jfkHEcs6/E33FIoGgNl4TEAP/xxx+qqTwYsJ4x8wYqeB0AoF+Sapui0rfKn/BDqP5cK42FtHo+gvwkWAKlZCTxAuh723YKMAK/VpAWObJnFpjTH3r8XCvef9EiBdRY4YMAEuMuGOlpM95QE6QnmFXBux4opNxm4mqcI+oBPyue4UtS7bfa6mn1fniUI17spepLJ15PwgRD4rZn3+Ga0tHTNmY/g00O0haSnP6EJC7wJZJ+6BgDUFBWYSOH9hbayDu9U/RxTnINxcrUsMU3ANMeKxwY0cwK5yYMBLJggxQ5GVJFIGdzJdlIYtNdZkpIhfADZcxWBF0Uk2dy4RvTTJfmslIioWwV/w/emJDA4AHd/A4Z73fqy6/Lb+I1a3kYub7OHZvrCQbYYrgkJAaYuM/AoRMtk0ZTEUam+dXpY0zp4W2pwCImaZWDgRgcCbBBwvIUqACCZ9a1GufOLIQ7D0gyat+BQ9GnpgoPPgj3Ja+xAVjKarWbyz6HjY8CemWCe16MH3wToD7MCKQmKwTl0bPfCDObe92GczdrXFdjXr3xTlBaS0UdSVW7AstYp/ZNvbJmGcdn8lwpZeQQ8hjxSiap5pL4oXuEuzDpz5NVD8+dVYFcqk2LhpKEbGUqPGKch/DTkqUr9fLe+AyP9+MV8/SE4Rp64HvyI01b9VRfrN9oyUngGEyahHG8PZNs4ypMoo2FjwGkjBU+Bp4TPFGq0UoIosOf0GGlZPnamomQCSpQITw1oE9HeTb9V9oGemxf2wfdAHPxeEmQsdAWx4rghY6SpZQZ3lFmvmate8jD9a2lG834KpYvpXF/dIkNVFgiQw9olf8Byjt+MAZyA8gNrWKmCgcFE5G78GOiA0adBu3cvzL9b85JWbdZzCn3FKNIocmPO/aYPo+nDVOnSqHGjRogHl9VT19LQvF/Ukr+uerVf6TtCjiW98sWvapjq8T4vQnXBzSLik08bwTMb5XK5TUePFXKFPoz1/8w8TZp2U24jne4fhzQe5j9mPTpz2ZWmChAXNSV+28wfXGdVKZBqg9qxl1WrflCDR89zXIoAGOIEZw/Z4rOS7gf39O/QVo0bNbVssedJEkivToD/eNPQARRkt2+y0DL+RDCgDQpBWIXTgm6Ab7623VtHCCRsSI8QE8/WVbNfmW8x6WU+zHh4G0icCirQX4MXstm9TXSwhWy434eb//u3neYLsM1APDetjP7OZMAGXt4Vz0JMe6oZMoaT1+b+qxh/RryYw3A+xWPC5KhHhISsCvwHNM9gr5kngRDT3diStftSiu5ryS3/CXfSLaROZ8hXrcRgyf0QFUaRSruwjZ0I2nRzlx+wn1//o1RI9nTVeK//sbnuj98wN0Ec/61VF4ihAYKSXPVtZ8sicb7um7P5NJCKuTWfv5NdDWf6/dm3hP7hRMFA29WKJ6BlIlkqhUhNwAu+lkvHS9cj0mZ+PNNOumYuOvnZt9zL4C5sSIMJPyAbhH2typBN8Dvvb9KjZIKrWPHT1kaE+WTdGegKsyMNGreVX0uCRM8QysC0oJkUCBeiOt5SpavJZ6FddYl12PhHdKvi5igp5tKkgiiEc5p3HzX/c28pyoK0h0qijydw9MxSKIQb7QD4Oe4wKLAWNcU5jVPjyzdM+A7HizhK5aUdgTWrHnisRH79eX9cg5QBMQqSRoh3AeQIXiVnnREhV6Ltn10ey29g4X/0NVl6KAeerVjdndCTwuXvKdAPhj3n2Ttqg8W6O7Gnsa6UQp6gIEdkHtoVcDGvi5x9EdEp2al9JN1dSk5z6wVaSDP55RxL/pFW/C7/+rr71SDZl2idRLo+YBDUuTEytOsEFYhbMj5zeQXvB036Aa4Q9eBmo3M6pKcFiBAz9KlTeNtzNGfQ/DBzGcsxaK/COANy3BwxoHi/vgB7PnpoKpcvYkl9IOnIZKFJYudN3cOT1/rOPNUSRBNn/mmx+/NfBjl/bY2Be3jeMQbgS7xI7b6YzLGRTsbJjseeE9C0nb0hJm6e4an7wP5LIosppHfAp4PhWP5JUneQGbDPcWjhOOAzDtxT3fhh7dBjFpDgTz+bdG4cEziqVRbEe83I/A7fL95uwLyZpAzsXpDp/AdM25P0nfgaPXuilWWPdF00varfevGOvbrycB7OueX4hC1l84wv1rs2kJuAF6MZlID4Gmidj0nHnbzNr00Ztz180De1639jH4u/ZHhG8ck7EkJ+vNNOmsESny5D/T2e2XaGPGgExubmXoNqgE+e+68LgWmCaYxQ5saxT8b0a+KZSNlsd4eKON4HL+J1OBDG2gFfcBxWFqxrCLhZfbhMs5PkqGX0Ou9/c5Ky+c3jsUryTj4R7l+9yQK32P8aMhYq34bywUfVDGNF2TFc3WqeTwH53GXvTLJUGZt1/vluFMnDlMNJPzxoBCruAvFJ68KmT3lv1bvp3FMwgevvzpBQ5d83VeubfK0ObqghPuJYHTbicHhuaBCzV3wfgdL15N3hSzJqtDpZMSLvTXM0N9zbpyDCaJl+z7RCUKuCy9/yzcfiZf4X9QD+7EPDhFVi1Z+jxwDjDIQvPQmJwr26dabsvxVlh0TIIOE4cAy+5LfBW2F9wsXh1UKWI4PyoLfHi2XzAhhsnadB0RXP1LRCWR03uzJAduRoBpgPCWqs05a7IlG/HO4kGc/IUseX4Ix+mHbTklEdLC1VH2qYmlt7Gk7FIhwfnCq1Wq3jMZgBrK/p20pc6UIxFs8EHrEJYL2GCTMcnRFsCKUuwaCfLh69ZpaIZAzaATtkqvTMn7siP6K5ay7USShtWDRcm2ArSZuDX0kSphQLZWWVcWLFfTZjBMuXbDj4LcN/g6SWfAijxneXyVO/F+jxnKTVkv1GnWMjhUb5w3klWpLkBl0GzYj+2WpO3TUVN1gwFiFAF8cI6Gkxg1rez0E5DzvvPeJZVpGnsW2oHHEGzU7UZADKl2hjlQvnrVk9AmRQYJOQ1Xuhy+BAY4ejFS/WhU6Z784oLte9bg/l56OSZ9DqlVXrFytjT774Mh98v4CaaBr7n66HjeoBrijKONjqdu3En6gGSFYyOlTRiiWVr6EhFebjv10s0fjgfS1vbfvqG4a1K+rJsDxto3753gS4BobNussdJD7LD1k7sfEOMGCRkkuGGBPQslpoxZdLfcsg8RkgvS2qy3n8JQpdz8nXigQom69huiebu7fB/pv8JzdOrWK7nNn7M+SHhIjuGyJb1v11IzjAV2EMc4TFtbYhldgbpTmutJ5QsINKsFbcQjt20eOmy6FFx+6Hiqg93i/IHxI7nla6bgf7Pw/lJgTXSgxH5CCCwoUIBjy5rWxRG7bsb/unGGVJIiQGJ0vAumSQojk641bLOdkcIb69WqvnqpYxl0Vd/wbqslVYmvwto2QzB0bmPxHIOEHcOKanlQmbmPS5nc1fcpwTV1pdpJyHVrQDDBGqfbzbXXzSCseGuW/NFBs09J38o2lBjjjFu36RCvB9YLMvqf4obdU9RBDuyeALCaeKBCpD4SJzM6yxxgnPa6aSByaHz7wME9CnOuddz9SVNxZPSecD1Rbmal6g8djs1SEjRJjQ0t5iw539KXA5YphrC6xVZZrhhjGF/IhlslWr804Hl4TrGpUUfryZiDaoVv2D+LNGhM4yV+ev+ZNn/PoOVN5tknYxJrJctdOzoHiF3g9zOQc0MeXssTuLc/biVOnpRomng6LECOlJ5u31RL6oCMwpdw8r1YEYnxCMcSp73MpafZ2LCbOcdJu6JXZC9SN6ze9beb380bCY0FjAE/xd9ed4TUG/bRTnCA7wrnai5efWPiofclV+Q2SLxg+Zmo0PJJJvlGD2rqoyL3y0NexXL8LmgGGGnHAkPHqrHgJVoTZFsyfP8KUa1IQUK9xR1vtjRhfjWqVNESJeKFZYUk+5eU5ulqKcfj6kZs9ZhQKo43OwHqbQX8+dFSIhvpa7iZAoclkySjXkPJf6vn9Cex1UyQxRRNQqhrtClWNnL9EsULRh8L4viuImdfoH6ezyX9Ff2flDca3jVCWEhf1pkeOu2PXXjVl2utq7RcCy7p1S58KQwb6BDgiS2BPwg9+vCAlFgvvrlWB2Y/S+tIli/ocI8dnEiTJPE6Wu5RHM1FwXXjQVEg+LZWb3oQcDPFiGtIaE4y3bb19zmpg7Mj+KluWTN42if6c+DlLcri48RKtrmIeEzoAVkmUOvsy+kBOFy99X4zhNMueNoMHh031K/FbX79luDOAHcK0SPwXAVlDvcLcWZNERxn1Z1b+EzQDTJ05Rtho3RLIYJg9mshMAjzKV/iB6qO3hHpv6IgpigC8HYF0A5yh2ZmLm7BcmN3GSJb+14uX/GZnzYwNbxC2t34COwP65ElY6lAcgH6tYo3x8sHDwrbmTw6IJzpLSlahxWTWD4bgfffp0UEe+Ez6cOclOw7cjGIdHmg78WWMUg+pJIPTOG2a1NpD9DZmDP1L0pkbfRqeIV5M00Z1Fe2A4OPwJOgd5EM7oTm0Wm3JcYcI7Iyux95WOq7nptsJCUKSzExWiNGQslmTupLITOC6+R3vX3hxvDZQVkl30APeL3htQoO+hHv3mYxx8LCJ0kbrtGXjyzkIq8DFQJ7Am4A82bv3oGrdsa+ErI5628zU52bCD6xC1m/4Xjcd4LfB+XnmMsuKaZTYq8oyUZkJJXkbUFAM8HmZ9WrWba2xhlZmXGZ1SkZbNa/vbZya3eigKLylhB74IdkRaCfpFkDCxYzwIK+S6qyxE1+xjG/2dJ4CEvuFDKemxCy9eW2Hjx4XXtrJ6tM1X3o6hN/PSNZAH1i1spDReEAfuB4AnoC3lqzQFJckwwg9BBCdcT3UHe+HS8a/aaPauovE9h17NOnQWulYDZeCVcQDHgvkNTwz7aWgAePky4sB4wt/Bl73BZlADaEbdC/xnvOLl+7tHkDfOEmM4Vs2SqPhfJgoMfjSpYrJD9ZznN8YEwneVyQs8/Gqz6MniqRyH+vUrCwZ++4+DTirl6ZSGUrOwMpvkTFA3zlcuDr8Tdh4vnvlfN2lG7jmQ1b/E8fkv8gR47r8vRJ+pA8b9KzeBMIdOFAoxTaQK9629fc51aC0OaMJgidhFcLqY4rEfDd8uzmadzt1qpRSPi72SkJJ3mLwno7n6bOgGGC6EBMXJWFgRZj5yEQWedx7GeBFAaGPkPjLkmUf2I4VQv2IR1hGqPX8CV433SlYXhmsTiyxfP3Y/R3T+L6JZLAh4WZC8CQkM1cLwTQYXKveKCRDw+VB80cyhPGFU4MKNAPFAtbC+s/p3yt6S9pJgXeFLBvyGJbIVlnrOCoeR3aJg4KlZalMFtqXYHzh9yXZR9LNyFFALgMZPJWX3lZeeL/rv/lOViAvWsa1MjYoMcnue/OyjfGzInhj/lIdvzW8bSZOwhbDJXyRT5a9vmSQeKIL3nrXcj80Yr9U6JGgJj/hTfAMMb5DpcPGRmFlsxu/x1HQMXzRk7dENKvBtRK/5/dgFy2D0zdamu5Webqcx4lXh4C+/1G9LH0ZN373QzSk7iEh6sFhAiaHIbYrQTHAXSVTTqmqkRkMdFCNnq+lvQNvgXAMEd01hkjowa7iGRt9sui/BXeqL2HpR5NPGkMSj0OCZZRI+jCGxnLtrokp1/GAjQUqtVhme6tCJwhCEL5KLIltG01ArZJ1+xofLF2EjPDO8D6ter2cg8ovOBraiOeSX7p5ePNejPFEGd+FGpf6i+DUDUQAlWgssZ8TTgpi5N6Eik7Y0Vw5d71t6+1zyq4njx8sXT9K+uyyyyRIlp1zGVV5eMt5pDBnoFRqPf1UOZ9VfeDEGzbvokMBVr1fmnhSgu0NCcI14nmyGiXssOGbzbYbknJMupYQEqzmpREmxQ/wSwwdOVmKLjaziy0BcUUY0pNjQlhlk/QDhEEO5wsnDIHuk1ZPw2R14Es/gQzMtgG+IYOrKO3YicdYuenAOJhtqVzyJGSft+/YK52Vx2vKR0/bBPoZiAMqbXwtyan3h9iZVuvwTdid4d3HSCkwrYDw5DwJ1/21xJ669Rkqic2oEllP2/n6jGz5zKmjhEawoMzynn1ZEBasYF6bs0hX9/g6ntXveHDxKOwsGTkGPxY61WIkPP1w3MeHEQNhsVwqwc5hfP+Bc5BoaykGnKSbrwIDvF9InnoJA5xhEN3PYebfZPYpLsqcKYPXzUnygVqgvRBG3xADHfS8xNE9Edcb2/E6RIwTHVKMmLHrd2beP5w8mS5KYlXgjReF3zgrpAlTXtWTthG/txuuqiMGsa+gkvLkzu5xqMSXgQ6SfDP4OjxuaPJDkqHNJf+C5+0qXM+34vECUcT4Gk4lXjlwUcJpT5Qq4jc27npMX+9tG2ANzRHuX9e4mq8Tun9HJpKqI5bjngTeU2rf4aA1bran7cx+BvyH0mNfTGA3xfgCw5oung83AeOBEHaAJcsO7pDjMIZ+vTpqTzy+WysevkfwhngIXPvDRX1j/r/E1NCtN8A/xpc449x5b2uEhWEgWY4zOVklODI/Qv9bglnGg6wqcUkML2XM8MT6k3+N7yc61mwYX5bV0GG2E3IZMvy+4rHHJfZLQ0l4dK0Kz8vUSUM16sbbCu+kdHFZ+u6HYnxXivE9GX0q4tqNJTkNgVEqL0laY2N+f09VbSwdYU5Fe/nGd2Zfi0vjVwjXdSt7DzthfDGEkBYRzuH5MYSwkPH8GJ8F8kojBDxgT003CcVAFTpeYG5WuYVdx0K3YzDxIElc4/7Yl282bVGz5X6TdI02vrIKIYbfvXNrReLOX2LS9Vz+3ts2wBDvzJ672FLxBYNj6cFNp/7eXXio4IR9+ZV5tmKGrscl9kPpoTcCbJYbBN5nCiMXPckM48sDRikvRskq8Y8xjvLSnZdsr7cYNMstlkB9pNsCmVer8tqMsdJ5opJHWsto4yvxRtquGz8erhOOYJbooFpiSiivJQlUXKBrZMVJWHpjUHMfI9VKeIKEVfjBGrAojC9L3G6dWwpvbh6fxhd9bJCCAvC0Ruzf/Txm/p1DrgFuE55z1x+7sS8ttAxECIkzQyAugrQIHC73wpdgGN9cCDfxRMtIGY6PsR88oKvHmDpe9S7pujznjSUameEaw8eJIKxkZQVsXBdkOBhgnj9X4feIMZwkibcftu1y/cry+zpSdUqndVfIKyt5nC1I5MlTGMaXk1CIwiqdUKm/kFegg7JtgKvWaq4VY3WJDpMQinen/WPWo9gBL9T1wQz0At23L1Qgr3qhX2dpM1PO/SsdX6YVDUgADKDhceP5EkPFMBmx4P/sbPIDlna0vYZ/gnbpnoQ499tSbUXS0RiDp+18fUYmedGb0xVejfsPnzgvoPJlsuTdu+/gHcaXJE9T8RD5wdEVOJxCRpmEZN48ObXBzSPebo7sWb0mKT2Njb56c6WrBZ59FJKDqH2UPFn+CU1+TrWVr/ATW4PQoOv0pKmvWb4HHAeGrWFSXs/E7y4gB0Bl0PX56LET0V8DjYSjmhilmU7OFIZUqdFMo4OsGkH0AQYXJj539jieBXigcUooYnF1QPAG6dZN1aQdwSnCDrgKISBKv7EB64V+0+pvwfWYvB81tK8UP9WO9rZJcJPs5nf/o3S2cYXSsnps1riOJmpnRRJssWWAIREv/3T9O7yMQAfoyQDTXWLN2q/VjNfmS6PK/YEe0uf2FD4AdXlGEjmuQlyLLr90cd4hPwxDqJKDJAgPfavMwHYJyWkw+uIL3XQs0ziH++tO6fc2SpperrNR485SfY5wKrszPIFAoOnkSmkk6j6xEY8G/0k8jge+reBeQyEYGCY0Qh3E4DJI2yCKIah+yijhBsJSmTI9phNugZz/y/WbdAx19Wfr/4MCwOh2lZYz5cuV8htL5ZxUANKYk9WQHSHOiGFxDQNhSDjuW2+/p3kM4DQwhAm6lBi0jsIXUV6IcPyVjeOpg1OtL6yAVo0v504t3T96S6Uknp6rQIH5lTwLeOlfiX7JTRhCXB4UQQLBJC+TSk074m6AKQDaISuzOdJXkqa3wTK+ySXh+opUZRJmIa5L7J2mCpSX89uAdc4QnAG8XsKjrvfP+D4Yr7YMMLMGrEBUhVkVkgwwEbWQtux4aqfP/qJWC1CeG4rBM4RYHfEhiFvsCLE04C7NBHzPMhdA/napjqKunNmd6iFX4ZwsWfhRAH8xAPyu2wTyHtA/LWi8Jd9IMPBAQKRyWYjCrQqz9fzXX9J9vNArFUrE66lu4wcLq5er0DuN2CgPGwUNa9at1w0fg/Hgo3OgXgYEC2/LMMDgWzOIl/GIQMlAI1iJrxFm+EzGu+zdj7XhxHNyleJFC4lBa6KerFDaJxrE2Id7QIxzgIQfXL0h4/tAXgkB0f/O8IB5vljqsrrbsnW7PE///nZYftMDEJJ2cNv+jC/jIB/Rq99I/XsxQi2BjM/YNmnSJNoDpqgFEhzyID8LhzB4bVYT7o4Hk2h1IUunaq3vC2M0OZVxLCuvruT5ePTfb/lRo3+gKHXNRUC2xLPKys2KlBcIKvejoBC+4+i8/8EajbAy2lAZxzSML2EZ3odKbBngcZNe0ZlJO1lJvKBSJYroHnB4mztl1sP7Mkr+uHAezEfSptI8uUbbdqsK4QdeWvC/zIBUQTEDcrNBPLjGfTg+BoElZD2hb1wlhRB2kjEcjyw2EBa6PXvDnRK/nCWIBEp07Qp4zoIF86i/JYmIPiGup4jF3UCRlGgsmfpGUphizPTEv2m1BAGNXWEFMVH4dQkzebtuK+fA42O1QjiFpTwJW3cvEKwv/BCUuoPhNCMkmtA/CTi7AtyQSQ3I40UJq+0S7gISPcR+jbg75+AZJ/xDOTXPHAbRn2BwWYWCQrKD0jDOQ04CsiZaznNcjC6TNuEYVyGxWExCW7DbJZXfSIkyNW0npln1YNB5PXX6jIa3bdq87Q7Pl98jkyldj3EirAgQO/ohHpVk59tSU/DFVxvvcOq4Dxj4+nWr6Zi42byDlbGwjy0DzBJV8wW4LEusDIQfJZ4mmWr3m038leaIVDxBdQeg3q5ghEmoISyxjESb63H5voY8EIDn8SCbtelpu/QRDCEQOG/thjg/rcZfFHA7sSi7Ql8t9MoEiTftunw0jg1xDZA4jLXrTE9iDuIRoz27sb3VV6oOKffNKdlkb0B7s8fGcFERBUcxjUL5EZFEcRcKeyiAeEo83yRJPFc7ue/Dvwk/jBk/Q1i97ONNOR7xeCZfPHX3SZ7vrRhf9uO5JWH0XMMO/NO24PkmE8MP29plmSw8ef/8VgvjpYteyaPguFSr3cL2uTkAz+qDCRPoZ9VdT+QHmCBAw8DJQDl7oEICjcInvHeoc2mb5vrccB9ohkDTAkKOoTa+jN+WAa5Zr42eIa0m4PwpEONL3TztSTqKIRw5dpqO0frbz+734CG5AZ2k0iqDeC6frv5StesywO5h9UNL9ZY3Fiu8N5amEKDbCeuYHSjGl7LTtuJ1kaV3FTygeZJZp1VPMISsPiXDDcXT5vqtGGGeM7xckldgs9cJoY57yMgYK8Q3PQQ29KRwPvvDzxr7GK+EgPoOHHMHVaXxXbBf9Y9ePF/ugVnP1xgDCAGgiqMFiRQOIXTEcwJkDG+V5NxHq9bpMGQoz4/BJFcEU91VQSGBDrIihOVYZUB7ekJWvq4rEM4B0oauyFybmRWIlTG472PLABcvW1Mvbd2Xfe4nsfpvZiweSgL0YoslJtlLZtwdVg9naj+MUnWBKmEoc+fKrnGPVN9gGO0IHY5Hy5KN2ZXkhSfB6FIJNXDoBE9fB/UzrhNvgiWvu/HlRIQp1n35jerac4gtAhrXQbO8rFu7qqom580mxDxUtfkTfiRA5k5JkpRin+8kXOTL8LK6ySu8Dr2kyhDP11u3CF/nBYEC+VGoxfC4QMTAYeyrWtHTWIiV9pQiEVYBoRZtfMXzxSmBSRDBS31dMOTDR08N2empEoWno6sUTsFcSMMHUCNWBO+dSRyYp6vgHJQo/rgOFUFTYJffwfXY/t7bMsCPZi3ucUnl76RmvsdrIW5HuS7QMcpIQ22AMUpUWmF8wQhihEiYtOnUz1ZCjOvFyEFwQosXb4LXCQ8A5cehlEelz1flSuV1JZCvkkowyKPGvayTgsEaDw97hXKldEIshxhkluc88EZBBJP5zZu/a1w5jTnxeA8fOaFDMj9s2yExae9VgXgxcCa0ksSQ1R8S54dvpJsQzIRSuN48uXKo9m0ba4MWqPFlbExMDaUZpV1opL/rhHmNFUUH+V3U/Mf4sg8kVZPlWZ0ufAmhEIxvLulYQYPU+hK3hb+5Vfu+QasJYAJMLxSY8Ik8/1wNbeDNJD6Dea0RaYCJXYLZ7CFtog3vLJQGmBgvhoHluGF8UTIJKCrRqAm3K8RY4R4gwO9NwmGAIcXBCye7CwLFl8DBAXXjgMHjgsLB4XouyoFZYUAQn1IqAw0+DDwUMOAklcgHkO12zYK7HsP1PRM2iVWemdyC1/bXzsZ1X9f3xMsXCh4UBESoBOMLHJHnQS93TSYH3ccTDgNM4rJUicfleamlV6OuYwilAXY1vpCeszoEp0sYMhjCZE0+gmQbjHjewoLBOJevY9gywDkLVNDBcDvwF/fBeTK+bHP+1wuakYrlZzAF44vyYTiiv5ZRHYMnRBaYeCzNG+0IFViQ4pB9ZSnnTUJpgIm5grcFasY4zD5wIALwyOFC/l2wmZEmhKYyZUivypUtLgnO7lLmndwWU91NIWlftETCQMI9YqfrsTc9cf95xoiHEwKyU1kFJLJ9lxd0EYG381n9nPwLSbFKT5aWmG8L7R26H4skHQ4KSbFgCsaXXm2tmzfQyJwEEjrgNwjTGwgpu0JSH3QMhp3E3kMBJGjtntt9f1sG+Dn6PwkzUTCScNxwFAE1pavnawwYxq6ZUpgRzOU5NzqjYPwaCtgawLxrmxi8ruVSsNBPkjF2BXTBSxOGKpqA+hIQGfOFDjJYs7xxLmLOWbNk0D96cKneuj4Y27u+Ei/j4R/w4lhBB+y4I3Hhul243/O8YMyM4hG8eqter/vYKcEG822V38T9eMa/SexAjETFGV6l3eUuSTh4g2HrC6awNMdIEY6DTwRP0ZMQovtc8gSNW3b39LWlz4C4YXwJO/C7xPiC3vlCipI693xRo5YsHVh24nkBZlm7RmUd7wV+GdNiywBPFM9omnQYwGuwI3hngPXhrqU1jBF2cD0mgPN1UihBqxX3ILrrdmbfk5zBEwEATmLIFZ+KR09VzBCphKL/nF2pXEmaPUrzT8Df/oSschd50FwB+v728fU9HtbjBfOpNq0aKkDogSICODa6J85IJ5K9QhYeCs/Q1zW4f8eqhYz244XzqX7CqQFLFQY5WBJFQTozKN4WY2K8qeX5JkRC2MFMXz4z10KRDB4hvdHcsd1m9ve0Db8DDBNcKdC2+iq/5XcCHLB42RrRlI2ejmn2MwOJ0EpsAGEBjC9ClepswWVbDQWif5wr7Ar2hdJpK8lZs9cRyHa2DDBQILoTuxKeBHJytoXIg7gkN7x1i4a64MLbMajmqlSt8R10fd629fY5szsY33KlS0gbm4baE3HfFs+CwgsSMby3K1Fk3E30dfo7Ft1s6YC7SqBvdtAleIOpU8ukJt1lQTrAq2DHQwRyhGGCH2KfFHPw73ALPyQYxTJJKKVxgzrai/HUPt7uuC5evKyWCDk97FtWOny7np8EVsaMj+pWRM/JRE/JbzCF57NOw3bC3rcjmnTIyvGZwEgEUqrfRAqFCMn5CpcZ5yA226Jdb1t4cc5NSXqJ4oUEjtfoPytFMPEgg6yUhfPMQOpEDLtBvRp+WeWM6wrXqy0DzCCJkQKD8QTa9nURKJ1KNBo2gr2rLeW+D/qIj3IsYC9z5y3VP4xAvW7OBxSMJBi4YqrbvHVeJflGwB8mtmAIXMcse8wUA/CDWi1ltcNHvaSr9AwCcbPj4IHjPIQcukrs7ilZVQQrxsWEcPzEGdV/0Gj1g4DYCZmEQ7gm7l1a4YqApIb4aVYP5DbBHMtuWQFNnjZbJsIv7qjGMnsOCG2SJ0umikqsEfY1ViGuqyyzx/G3HavBrT/u1K26SFxaycdgaAk5kBCEIxkeabMCdwLUrU0kDOHKkGZ2f+PcdWs+o5pJGNA9MQzLGtQE7bu+YMkZSpUyhTTOnKBKSsiHXEykiW0DjLFq06GfEGf8pBXk7wHgxwThyMPCBBaFQ22gyw/NKgZD36n7IE0MYqY9OOGNBHI+CjqAtRFbyp83l8/TMasfPX7K0g33dODsWTNKWXNU5Z2n790/47roAUcD0LO/nDO1vIRwHVwtRorVBPGzDAKxweMPtjBJQEs4580lGgpl10v0Nj7GTlksrV+4dyQQ3cmFvO0bjM8Nj/+n/Yd0Ft7fs805iesmTpRIDMlj0u68sapa5UlbiTYz18Ek/fGn64SOcpJuC0bM1N9YcUhYfbKiKCUYWAjqywjtp5VJglAIXbThlWb14O/cXBPnwVEgGcbKt2zpYppr2/V6OQ7MfTxrxLqtCPy9I4f0MZ10tnIOO/vYNsCcHCM8ZMQkKaPdpn+QBtgZjwnDgNHlx0SAHcgRJYwQogNDClS4KZekrJYKoAWLlqtbYgx44HgIAe3zYAHzue/e+/SPAS+3gnhNDerVFJrD7BE5C3rSAXCo76Ukdqo82DuEP4D6d7yB//3vtn6FN4OQAn/3x79PpZDqPX7s7ds0VvT1slJp5mkc3j5D3ydORRGWw6zG6oQ279x7uUWWhXsXX54TfqAkTGpVf1quq2I0OsXygS3ueFpinLQIWirkUJevSNm6GBues6h78T+tf+7F/WLMeL6hLCUhWEc8Om8E7BaH4ne3H7bt1LhcKgWvXbuhS5X5DRoVX/wG8cxJPicV40dOgspE+KmTJDZfqu1pIPwuKSIifAY6g+eXz4wyf9rMYweYoCh1hue5RbN6GrfNSthV2I+YNjC7jZu2Cs74jTsYCl239fUeWzBVGtLWlbZTZlafvo4Vqu+CYoCNwVHi986Kj3TvLzo68PDieRL3IrBfUbC9paWdhzceXOM4Zl/BiH4u2VHIdC7JzHtQzp8sWRKZ7R4RHtnMmku1ooD+SfDFVrlx86a0Ytqjl8IQg1Ojj54JK0A5mStndlWiWEGJm5XRHk1MXOcVQah8+NEa3cp+l/TtuiWFFH/f/ltIgISkW35MGAF+VK5CyiyenpjvkUmTCZpJ8171mBhd0CJ0Kygi5aeEHmJaWGbzLMPMtVXikSfFK6NIhZUA8UWwshgU7gFcAu58uuEe/34ZGxwtsH1dlKYGhw4f144Jy3uelyKF8+qErFkoYiDjvyrG9yvR0/sfyqQszy6cIgik8nQyKVa0gOQlyupQgzsKhOeECQ4eZ/iFDX5e9GxFgNGt/WSxPreV/cOxT1ANcDgG7JwjsjUAYdI2iUnC4wyZNl2IDwkF43XxyFwFDxd4Xhb5YZKEJUlYUpbCBm2j67bO+7tbA3r1KhP2cQn7QQNKb7wjR4/bvmgaCwx9QbDhEeyAOQbY9m12DuBowNGAHQ1Q8LRQ8O9UXf5y7k7qSzvHXfrWK7ok3Upc2855A9nXMcCBaMvZ1tGAo4GgaYAkJ4k7eKqhS/UUqrJ6MkKQK5bOidjkm3FdjgE2NOG8OhpwNBAWDXwnROuQTtH0lHivkdAM5skhvmojRRfhToQGeg2OAQ5UY872jgYcDVjSAAU8tLT/6uvvdJk3SAf35KylA7vtBKpi9UeLNJNaKGCYbqez9U/HANtSn7OzowFHA/40cE6ItBYuek+QEasluXYiGqLmbz+r3+P5DhnUI2B+Zavns7OfY4DtaM/Z19GAowGfGgDVQCHFgZ8Pa34TA5PscyebX36ycoEqLgUedkrvbQ7B9O6OATatKmdDRwOOBsxqAE8X9kJ6CtLNxCjI8LU/pcIUEYELP3zkmK9NvX73tBBfzZkxXrcUohAj0sUxwJF+h5zxORqIZRqgZdAbC5bpLiYUZoBu8Cd5cmfXXSkSJIivlknV4Y9SfGRFFs17WVjnyipaU8UGcQxwbLhLzhgdDcQSDcDZsHjp++LBHpdy4j/8lqVTFQsJUB3hbMiU8TFN7PWSUNzCxxKIQHlQQSpt5746QTOrxQbvl+tzDHAgd9nZ1tGAowGPGoB7YuGS9yTeu1gIdM749XrhzShZorC0BHpWlZauFOnSphFWt11q8vQ5mnzd40l8fEi8953Fr6ryZUpozgkfm0bUV44Bjqjb4QzG0UDs08CfQoY1cOhE9dnnX6tTGF833g/3K4KDAm7kas9U1IRc8JrQgHW2JOtelgafZnoAuh4T41vl6fJqzsxxYe1o7DoGq+8dA2xVc85+jgYcDWhi/nnCFjd+8iumDGcJIS2iISzEXI+kTRWNVNgkxRmTpwXu/RJqoMXW4vkzhJSqUKy7I44BjnW3zBmwo4HI0AA0sBuEtayv9E08euykz0Hh5dJ0oabQixYVlju6bxgCx/csoZelwScdsQMReB6g/pw+ZXisoZp1vT7HALtqw3nvaMDRgCkNUMEGD3hracYAHawvoR9by2bPq+fqVNU0lO6dKTZs3Ky936/FmAciVLnlyJZJzZ45XvcFDGTfSNnWMcCRcieccTgaiEUagOv3/Q/WqK69hvgcNU0XaL5QR7xf2h5Byu4q9HmcMWu+NFd4T0IYV12/8vme0AONTge/0E01a1TX57aR/KVjgCP57jhjczQQgRrA+wXp0LHbQLXp+21eR0jDgC7Sl7BGtac0ab37hpCvrxQif/ghdgl/dCAC3wN9HUcO62up03cg5wrlto4BDqV2nWM7GrgLNQCJDoa3QdPO6nfB+noSum/06t5W1Zb28t7aAQE7e0labn3+xUavx/F0bFoqFSqYR00e96IqkM93f0dP+0fSZ44BjqS74YzF0UAs0MBV6dW2ULqGDxkx2eNok0ijz769Okrct57XjtwnpTz51TkL1fL3Pla/Xrjk8TiePiTui3Hv27OD9Hms7mmTWPWZY4Bj1e1yButoIOY1cEEM5uRps9Vrcxd7HMyzVZ9UE8cMEphZat2Lzn0jypMXLn5PcwL7Q0+47kvzU7p+t2nZQHWW0EYCQUDEdnEMcGy/g874HQ2EWQP+DPCiedOl8WYZ3dnafWiXLl1Ra9atVzNnLVB7fjrg/rXPf6dKmUI1kz5vHdo20Qk4nxvHki8dAxxLbpQzTEcDkaIBOnO/9voiNUFa0HuSTetXquzZMqt7XRAPsKEdPnxMs6MtXrpSQc4eCDVl0qQPqVqCIR48oKsY35SeThsrP3MMcKy8bc6gHQ3EnAZu3fpdulpsUs3b9PJIMzlhzEDdDBOjef36DXVZ4GXHpOPx2s83qLVfbFC//nrR9OAh2UmePJl6+skyGlGRL29O0/vGhg0dAxwb7pIzRkcDEaYBijDqN+mk9uz9bxjhMeH0pdQ43SNp1Dnpcnz85Gm1a/c+3Ybo77/9U1Mal4rxfURIempUq6SaNKyl8uWN3YgH47pcXx0D7KoN572jAUcDpjSAZ7tUeHuHj3pJXZP3wZb7779PpX8snapb6xnVtlUjXcQR7HNEwvEcAxwJd8EZg6OBWKgB4GjwQKxa8+X/2zt7lQaiIApPY9wtogZtREFQUWIKETGIqCCIP6CVis9iYWEh2PkiPoJYSBrTRIW8Q+IWirWFd25nIQSyMLvMt5AmJDdnvgOHy+bObLzVkEcJuuutVqtSX14ME9OO5OLs5M/ciDx+o0hrEMBFcgMtECgRAe2Iy8L93KvrO3l8aokeLxvmSpJRmZ2Zlu0wH/jy/FQ2m2vDLFeK7xLApbAJkRAoJgEN4c+vb7m5vY/dcb1+Fp9moe8PcumON03T8EfbuDTqS7G9+GB/998GjkHWLNNnCOAyuYVWCBSYQOetG4bqPMhLuxN3w3pv+CccP9OXzn3QUNbxkdrNVqmMSJokUpsYk0Y42XB8uCc7W02ZmqwVuML8pRHA+TNlRQi4JqC74Nf3rjy32qJNG/2PTHq9THR+8ML8XHxmm7YTr4RJaRvrq/FJyF6BEcBenaduCEDAnAABbG4BAiAAAa8ECGCvzlM3BCBgToAANrcAARCAgFcCBLBX56kbAhAwJ0AAm1uAAAhAwCsBAtir89QNAQiYEyCAzS1AAAQg4JUAAezVeeqGAATMCRDA5hYgAAIQ8EqAAPbqPHVDAALmBAhgcwsQAAEIeCVAAHt1nrohAAFzAgSwuQUIgAAEvBIggL06T90QgIA5AQLY3AIEQAACXgn8AgzW14Oh26hqAAAAAElFTkSuQmCC;" vertex="1" parent="1">
          <mxGeometry x="327.64" y="120" width="66.73" height="80" as="geometry" />
        </mxCell>
        <mxCell id="Pz64K4wgbgvodxNm2UrY-51" value="&lt;font style=&quot;font-size: 14px;&quot;&gt;&lt;i&gt;Event Logs&lt;/i&gt;&lt;/font&gt;" style="text;html=1;strokeColor=none;fillColor=none;align=center;verticalAlign=middle;whiteSpace=wrap;rounded=0;" vertex="1" parent="1">
          <mxGeometry x="230" y="374" width="80" height="30" as="geometry" />
        </mxCell>
        <mxCell id="Pz64K4wgbgvodxNm2UrY-52" value="&lt;font style=&quot;font-size: 14px;&quot;&gt;&lt;i&gt;Event Logs&lt;/i&gt;&lt;/font&gt;" style="text;html=1;strokeColor=none;fillColor=none;align=center;verticalAlign=middle;whiteSpace=wrap;rounded=0;" vertex="1" parent="1">
          <mxGeometry x="216" y="519.25" width="80" height="30" as="geometry" />
        </mxCell>
        <mxCell id="Pz64K4wgbgvodxNm2UrY-53" value="&lt;font style=&quot;font-size: 14px;&quot;&gt;&lt;i&gt;Event Logs&lt;/i&gt;&lt;/font&gt;" style="text;html=1;strokeColor=none;fillColor=none;align=center;verticalAlign=middle;whiteSpace=wrap;rounded=0;" vertex="1" parent="1">
          <mxGeometry x="219" y="224.75" width="80" height="30" as="geometry" />
        </mxCell>
        <mxCell id="Pz64K4wgbgvodxNm2UrY-54" value="&lt;font style=&quot;font-size: 14px;&quot;&gt;&lt;i&gt;Event Logs&lt;/i&gt;&lt;/font&gt;" style="text;html=1;strokeColor=none;fillColor=none;align=center;verticalAlign=middle;whiteSpace=wrap;rounded=0;" vertex="1" parent="1">
          <mxGeometry x="211" y="130" width="80" height="30" as="geometry" />
        </mxCell>
        <mxCell id="Pz64K4wgbgvodxNm2UrY-56" value="&lt;span style=&quot;font-size: 14px;&quot;&gt;&lt;i&gt;Access Analytics App&lt;/i&gt;&lt;/span&gt;" style="text;html=1;strokeColor=none;fillColor=none;align=center;verticalAlign=middle;whiteSpace=wrap;rounded=0;" vertex="1" parent="1">
          <mxGeometry x="1245" y="370" width="145" height="30" as="geometry" />
        </mxCell>
      </root>
    </mxGraphModel>
  </diagram>
</mxfile>
